<?xml version="1.0" encoding="UTF-8"?>
<svg version="1.1" xmlns="http://www.w3.org/2000/svg" width="250" height="262">
<path d="M0 0 C1.16789062 0.92039062 1.16789062 0.92039062 2.359375 1.859375 C19.67199385 16.22516511 31.97534008 38.33355877 34.7890625 60.66748047 C37.33897273 88.86405729 32.05662696 114.77552694 14.02490234 137.07250977 C-3.09388731 157.58579956 -25.73041371 170.65869864 -52.484375 173.53515625 C-78.15784444 175.73573934 -103.243839 168.9030996 -123.6796875 153.078125 C-125.79824094 151.18070003 -127.40562775 149.34404397 -129 147 C-120.09724091 139.66346704 -112.44047911 134.60660211 -100.66796875 134.7109375 C-95.4033025 135.28134058 -90.79489617 137.50425319 -86.75 140.875 C-85.88375 141.431875 -85.88375 141.431875 -85 142 C-67.78515596 136.74555351 -52.37749129 115.99024349 -42.375 101.75 C-36.75749294 93.76974341 -30.65064475 85.21688158 -21 82 C-16.73931202 81.61734754 -13.0738768 81.64204107 -9 83 C0.31621038 83.93162104 6.52954162 81.92299202 14.25 76.875 C19.52256947 71.36276828 22.27588924 65.67919166 22.5625 58 C22.13425673 49.22101303 19.32537846 42.63300008 13.07421875 36.47265625 C7.13769242 32.25783435 2.14138553 31.57593056 -4.9375 31.8125 C-5.71673828 31.82603516 -6.49597656 31.83957031 -7.29882812 31.85351562 C-9.19952404 31.88849776 -11.09985834 31.94229041 -13 32 C-14.21260877 28.36217368 -14.39544552 25.82264001 -14 22 C-13.175 21.195625 -12.35 20.39125 -11.5 19.5625 C-8.87535367 16.87223752 -8.58682247 16.45631657 -8.4375 12.9375 C-8.67858213 9.09569966 -8.67858213 9.09569966 -10.5625 6.80859375 C-13.78399152 4.41828834 -16.68604738 4.25957309 -20.5625 4.125 C-21.23474609 4.07859375 -21.90699219 4.0321875 -22.59960938 3.984375 C-26.34960515 3.79073073 -27.78991336 3.85994224 -31 6 C-32.01691264 7.99145391 -33.01642648 9.99187074 -34 12 C-34.5775 12.474375 -35.155 12.94875 -35.75 13.4375 C-37.36401992 15.11400575 -37.36401992 15.11400575 -36.9375 18.4375 C-35.88472733 22.43803616 -35.48226212 23.79173622 -32 26 C-30.33917199 26.20173119 -28.6702818 26.34156334 -27 26.4375 C-22.31600643 26.72808749 -22.31600643 26.72808749 -19.3125 29.3125 C-18 32 -18 32 -18.04272461 33.99316406 C-19.54144415 37.13508566 -21.82354939 37.55431697 -25.00390625 38.796875 C-26.82631836 39.52197266 -26.82631836 39.52197266 -28.68554688 40.26171875 C-29.97773596 40.75814742 -31.27005544 41.25423683 -32.5625 41.75 C-33.85928317 42.26029995 -35.15551542 42.77200229 -36.45117188 43.28515625 C-39.62895303 44.53736741 -42.81170017 45.77487358 -46 47 C-48.75340466 44.43263619 -49.81162845 42.86161687 -50 39 C-48.6875 36.6875 -48.6875 36.6875 -47 35 C-46.34 35 -45.68 35 -45 35 C-43.78560201 31.35680603 -43.38869173 27.79156675 -44 24 C-44.99296508 21.7201938 -44.99296508 21.7201938 -47 20 C-50.22884262 18.96591905 -50.22884262 18.96591905 -53.875 18.5625 C-55.08929688 18.37816406 -56.30359375 18.19382813 -57.5546875 18.00390625 C-61.41536994 17.99952906 -63.00877375 18.62023989 -66 21 C-66.71727778 22.64551962 -67.38325228 24.31422289 -68 26 C-68.721875 26.61875 -69.44375 27.2375 -70.1875 27.875 C-72.39353671 29.98638832 -72.39353671 29.98638832 -71.9375 33.5625 C-70.96833326 37.57620592 -70.96833326 37.57620592 -68 40 C-64.74956037 40.60193327 -61.53988719 40.95091935 -58.25 41.25 C-56 42 -56 42 -54.1875 44.375 C-53 47 -53 47 -53 50 C-56.60628403 51.57820238 -60.21754484 53.14434383 -63.83374023 54.69970703 C-65.66466875 55.49014344 -67.49154795 56.28993815 -69.31835938 57.08984375 C-71.05375977 57.83427734 -71.05375977 57.83427734 -72.82421875 58.59375 C-73.88729248 59.05458984 -74.95036621 59.51542969 -76.0456543 59.99023438 C-78.92483911 60.97431076 -80.98838195 61.21424607 -84 61 C-84.65238628 57.9770616 -85.14549022 55.09840276 -85 52 C-82.625 49.8125 -82.625 49.8125 -80 48 C-78.51578296 43.44840106 -78.95331408 40.29402733 -81 36 C-83.84962941 34.58154837 -83.84962941 34.58154837 -87.25 34.0625 C-88.36890625 33.82660156 -89.4878125 33.59070313 -90.640625 33.34765625 C-94.09299735 32.99037586 -96.66424904 33.04487131 -100 34 C-101.44105347 35.46619483 -101.44105347 35.46619483 -102.1875 37.375 C-103.89970356 40.91403162 -103.89970356 40.91403162 -105.75 42.5 C-107.33365655 44.11923021 -107.33365655 44.11923021 -107.375 47.4375 C-106.91952422 51.88747615 -106.91952422 51.88747615 -104 55 C-100.75465462 55.66108887 -97.61168489 55.95732431 -94.3125 56.1875 C-90.82273275 57.41363444 -89.78642902 59.89029023 -88 63 C-90.06007841 67.12015681 -96.33996454 68.24606206 -100.44628906 69.90551758 C-102.36517995 70.68351853 -104.27632408 71.47865685 -106.1875 72.27539062 C-107.39148438 72.76587891 -108.59546875 73.25636719 -109.8359375 73.76171875 C-110.94501465 74.21506592 -112.0540918 74.66841309 -113.19677734 75.13549805 C-116 76 -116 76 -119 75 C-120.56430248 71.87139505 -120.35627284 69.44397075 -120 66 C-118.37064759 64.62131719 -116.70250393 63.28725907 -115 62 C-113.71209295 58.29726722 -113.86577979 56.44460445 -115 52.6875 C-116.81364225 49.6458432 -116.81364225 49.6458432 -120.5 49.1875 C-121.655 49.125625 -122.81 49.06375 -124 49 C-124.99 48.67 -125.98 48.34 -127 48 C-130.68382769 47.86843473 -133.49053585 47.83017862 -137 49 C-137.68025637 50.99541868 -138.34490497 52.99617991 -139 55 C-139.721875 55.825 -140.44375 56.65 -141.1875 57.5 C-143.33708568 59.90870351 -143.33708568 59.90870351 -142.8125 63.125 C-142.25514823 65.0971678 -141.64808077 67.0557577 -141 69 C-140.10796875 69.09796875 -139.2159375 69.1959375 -138.296875 69.296875 C-137.12640625 69.44640625 -135.9559375 69.5959375 -134.75 69.75 C-133.58984375 69.88921875 -132.4296875 70.0284375 -131.234375 70.171875 C-127.59785505 71.10296465 -126.19314435 71.98171223 -124 75 C-124 76.32 -124 77.64 -124 79 C-125.10859375 79.51949219 -126.2171875 80.03898437 -127.359375 80.57421875 C-128.82322972 81.27799506 -130.2867542 81.98245855 -131.75 82.6875 C-132.47960937 83.02716797 -133.20921875 83.36683594 -133.9609375 83.71679688 C-138.3199971 85.83688495 -141.45329928 87.69486307 -144 92 C-144.34387983 94.14148435 -144.34387983 94.14148435 -143.875 96.25 C-143.75382812 97.02601563 -143.63265625 97.80203125 -143.5078125 98.6015625 C-143.17157518 100.18963723 -142.79163964 101.7691327 -142.3671875 103.3359375 C-141.30397743 107.27923562 -140.61552199 109.99799724 -142.1875 113.875 C-144.91941876 118.58520476 -144.91941876 118.58520476 -147 120 C-148.32 120 -149.64 120 -151 120 C-162.69505299 92.63584688 -164.53232473 64.96686867 -153.7265625 37.0078125 C-143.95379151 13.3931006 -123.23287611 -5.9004468 -100 -16 C-65.50545596 -29.24790459 -28.49606485 -23.28535585 0 0 Z " fill="#000000" transform="translate(188,55)"/>
<path d="M0 0 C2.53149843 2.23668107 4.99935765 4.52610458 7.453125 6.84765625 C8.27683594 7.60691406 9.10054687 8.36617187 9.94921875 9.1484375 C21.36428778 20.02925993 28.93839001 32.61116175 35.453125 46.84765625 C35.86304688 47.70617187 36.27296875 48.5646875 36.6953125 49.44921875 C48.75300723 76.64913477 46.93549914 110.55529393 36.453125 137.84765625 C24.45860413 167.86850485 0.6552479 192.47515742 -29.07666016 205.40258789 C-58.48433554 217.47615454 -93.36609479 217.71274691 -122.74609375 205.53125 C-154.23646664 191.82538624 -178.04454465 166.34784795 -190.859375 134.53515625 C-201.47913552 102.91944717 -199.21655102 68.9921042 -184.83227539 39.02001953 C-171.24679743 12.0987393 -145.75628522 -10.80573173 -117.30957031 -20.95019531 C-76.92178237 -34.04474083 -32.70470554 -27.63848582 0 0 Z M-148.546875 9.84765625 C-149.30484375 10.38648437 -150.0628125 10.9253125 -150.84375 11.48046875 C-151.40578125 11.93164062 -151.9678125 12.3828125 -152.546875 12.84765625 C-152.546875 13.50765625 -152.546875 14.16765625 -152.546875 14.84765625 C-153.536875 15.17765625 -154.526875 15.50765625 -155.546875 15.84765625 C-158.7907063 19.31151486 -161.64517617 23.09537568 -164.546875 26.84765625 C-165.16175781 27.6365625 -165.77664062 28.42546875 -166.41015625 29.23828125 C-184.20817107 53.29628749 -189.45785728 82.62334087 -185.59716797 111.8984375 C-181.35379146 139.57914715 -164.85889628 165.66809589 -142.53955078 182.38256836 C-118.26081884 199.87087616 -89.29724828 207.24514854 -59.5534668 203.02734375 C-30.77434287 198.34446997 -5.476494 182.91581013 12.453125 159.84765625 C30.85812608 134.27755817 36.59039048 105.13817059 32.9921875 73.94921875 C28.14111718 45.3564396 10.95920752 19.9877265 -12.30859375 3.046875 C-54.51196042 -25.61476002 -109.78172343 -23.90242326 -148.546875 9.84765625 Z " fill="#040404" transform="translate(201.546875,37.15234375)"/>
<path d="M0 0 C4.36689189 1.42398649 4.36689189 1.42398649 5.875 3.9375 C6.375 7.375 6.375 7.375 5.875 10.9375 C3.75 13.4375 3.75 13.4375 0.875 14.9375 C-2.30909977 14.873818 -4.27432332 14.44790601 -7 12.8125 C-8.84809221 9.73234632 -8.61560718 7.43307617 -8.125 3.9375 C-5.45043116 0.79094842 -4.15592269 -0.08311845 0 0 Z " fill="#000000" transform="translate(66.125,149.0625)"/>
<path d="M0 0 C2.9375 2.125 2.9375 2.125 5 5 C5 8.23421175 4.53173428 10.11377619 2.875 12.875 C-0.16832808 14.70099685 -2.54249555 14.42460581 -6 14 C-8.5 12.4375 -8.5 12.4375 -10 10 C-9.93866496 6.5039028 -9.65265114 4.06485186 -7.8125 1.0625 C-4.99452602 -0.58941578 -3.20595185 -0.5129523 0 0 Z " fill="#000000" transform="translate(103,135)"/>
<path d="M0 0 C3.33794538 1.16102448 4.3364746 1.83747557 5.875 5 C6.375 8 6.375 8 5.875 11 C3.45404909 13.62846098 1.82885308 14.81388233 -1.6875 15.5 C-5.0499123 14.8102744 -6.1736167 13.81866476 -8.125 11 C-8.6875 7.5 -8.6875 7.5 -8.125 4 C-5.45946825 0.86408029 -4.13747529 0 0 0 Z " fill="#000000" transform="translate(172.125,105)"/>
<path d="M0 0 C1.9375 1.6875 1.9375 1.6875 3 4 C2.86990396 7.18735304 2.57069691 9.21189474 0.6875 11.8125 C-1.34198529 13.24065632 -2.50520579 13.8532474 -5 14 C-8.44560634 12.35923508 -9.85674962 11.21487558 -12 8 C-11.9375 5 -11.9375 5 -11 2 C-7.32022978 -1.25922505 -4.62295425 -1.50748508 0 0 Z " fill="#000000" transform="translate(140,121)"/>
<path d="M0 0 C0.66 0.33 1.32 0.66 2 1 C1.5875 1.53625 1.175 2.0725 0.75 2.625 C-17.91053602 27.95001318 -21.77620317 56.2543933 -21 87 C-21.66 87 -22.32 87 -23 87 C-27.41770593 59.21120462 -20.02814184 27.28436509 -3.5 4.4375 C-2.34816263 2.94675663 -1.18761098 1.46240395 0 0 Z " fill="#1D1D1D" transform="translate(28,59)"/>
<path d="M0 0 C0.33 0 0.66 0 1 0 C1 10.23 1 20.46 1 31 C0.34 31 -0.32 31 -1 31 C-1.82481886 25.97253269 -2.15430519 21.0991028 -2.125 16 C-2.12886719 15.32710937 -2.13273438 14.65421875 -2.13671875 13.9609375 C-2.11384792 2.11384792 -2.11384792 2.11384792 0 0 Z " fill="#262626" transform="translate(6,115)"/>
</svg>
