<?xml version="1.0" standalone="no"?>
<!DOCTYPE svg PUBLIC "-//W3C//DTD SVG 20010904//EN"
 "http://www.w3.org/TR/2001/REC-SVG-20010904/DTD/svg10.dtd">
<svg version="1.0" xmlns="http://www.w3.org/2000/svg"
 width="250.000000pt" height="262.000000pt" viewBox="0 0 250.000000 262.000000"
 preserveAspectRatio="xMidYMid meet">

<g transform="translate(0.000000,262.000000) scale(0.100000,-0.100000)"
fill="#000000" stroke="none">
<path d="M1135 2503 c-192 -17 -390 -88 -550 -196 -100 -68 -260 -232 -331
-338 -106 -158 -158 -299 -189 -508 -19 -134 -19 -170 5 -321 42 -275 140
-469 335 -666 189 -191 391 -297 646 -340 122 -20 351 -15 469 11 393 86 743
406 869 793 41 126 55 220 55 372 0 153 -13 245 -55 375 -58 181 -148 324
-299 475 -256 257 -590 376 -955 343z m397 -117 c430 -111 761 -486 818 -927
39 -304 -42 -596 -232 -833 -221 -275 -514 -416 -866 -416 -320 0 -569 105
-789 333 -167 172 -256 341 -298 560 -19 102 -19 309 0 420 70 403 403 760
804 863 165 42 402 42 563 0z"/>
<path d="M1051 2265 c-358 -78 -645 -352 -739 -704 -21 -82 -25 -118 -25 -241
0 -288 79 -485 278 -685 146 -147 294 -232 472 -269 523 -110 1020 194 1159
709 15 57 19 103 18 245 0 160 -3 183 -27 263 -55 178 -138 310 -282 444 -132
124 -281 202 -449 237 -97 20 -314 20 -405 1z m-45 -374 c175 -65 499 -185
719 -266 432 -160 455 -171 455 -237 0 -34 -118 -328 -131 -328 -5 0 -187 68
-406 151 -219 83 -569 216 -777 295 -209 80 -382 146 -384 149 -6 6 119 318
136 338 8 9 27 17 42 17 15 0 170 -53 346 -119z m-489 -293 c18 -7 32 -17 30
-23 -71 -195 -71 -195 -51 -210 10 -8 22 -15 25 -15 4 0 24 47 45 105 22 58
42 105 46 105 7 0 -53 -177 -67 -200 -3 -5 3 -14 14 -19 38 -21 32 -28 91 132
21 57 37 68 68 49 9 -7 4 -30 -23 -103 -19 -52 -35 -99 -35 -105 0 -6 11 -16
24 -22 24 -11 25 -9 61 94 21 57 41 104 46 104 7 0 -14 -65 -60 -182 -9 -23
-7 -29 9 -38 10 -5 23 -10 28 -10 6 0 27 47 47 105 21 58 42 105 46 105 12 0
14 6 -30 -111 l-40 -104 22 -12 c12 -7 25 -12 28 -13 4 0 24 48 44 106 43 118
36 114 129 75 l45 -20 -29 -78 c-15 -43 -33 -90 -39 -105 -9 -23 -7 -29 9 -38
10 -5 23 -10 28 -10 5 0 26 47 47 105 20 58 41 105 45 105 7 0 -15 -68 -59
-184 -7 -16 -10 -30 -9 -31 18 -14 48 -23 53 -16 3 6 21 52 39 103 33 90 47
107 74 90 10 -7 5 -29 -23 -101 -19 -51 -35 -99 -35 -107 0 -12 38 -40 45 -32
1 2 20 49 40 106 21 56 42 102 46 102 5 0 4 -12 -2 -27 -66 -171 -69 -182 -49
-193 10 -5 23 -10 27 -10 5 0 26 47 47 105 21 58 43 105 48 105 6 0 7 -8 3
-17 -4 -10 -22 -59 -40 -109 l-33 -92 25 -11 c14 -7 27 -10 28 -9 1 2 19 48
40 103 20 55 38 102 40 104 2 2 34 -7 70 -20 51 -18 64 -26 59 -38 -3 -9 -21
-58 -39 -109 l-34 -93 26 -10 c14 -5 27 -8 28 -7 1 2 20 49 40 106 21 56 42
102 46 102 5 0 4 -12 -2 -27 -35 -91 -69 -186 -67 -188 2 -1 13 -8 25 -14 25
-13 25 -14 77 131 l28 76 29 -10 c16 -5 29 -11 29 -12 0 0 -18 -48 -40 -106
-37 -97 -39 -106 -23 -117 9 -7 22 -13 28 -13 6 0 25 42 43 92 32 92 52 133
52 112 0 -6 -16 -54 -35 -105 -19 -52 -35 -97 -35 -100 0 -3 11 -11 25 -17 29
-13 22 -24 69 107 30 84 45 114 46 92 0 -8 -16 -58 -37 -113 -20 -54 -34 -100
-31 -103 2 -2 15 -6 28 -7 21 -3 27 7 61 96 21 54 40 101 43 103 10 11 101
-34 98 -48 -9 -39 -106 -276 -119 -291 -19 -22 -50 -23 -89 -4 -16 8 -342 135
-724 281 -382 146 -705 273 -717 281 -13 8 -23 24 -23 37 0 32 101 297 113
297 6 0 26 -5 44 -12z"/>
<path d="M763 1799 c-30 -11 -39 -46 -17 -70 24 -26 60 -24 79 5 28 43 -11 84
-62 65z"/>
<path d="M1130 1741 c-16 -31 -12 -48 13 -55 38 -10 45 -7 55 23 9 25 7 30
-14 40 -34 15 -42 14 -54 -8z"/>
<path d="M1211 1707 c-6 -16 -11 -31 -11 -32 0 -2 14 -8 31 -15 34 -14 44 -8
54 31 5 22 2 27 -29 36 -34 10 -35 10 -45 -20z"/>
<path d="M1295 1669 c-4 -17 -5 -31 -3 -33 1 -1 16 -7 31 -14 25 -11 28 -10
37 14 14 35 13 42 -9 54 -33 17 -49 12 -56 -21z"/>
<path d="M1095 1649 c-8 -36 -7 -37 32 -45 27 -5 31 -3 41 24 9 27 8 31 -14
41 -39 17 -52 13 -59 -20z"/>
<path d="M1390 1651 c-17 -33 -11 -49 22 -60 37 -13 36 -13 44 25 5 26 2 32
-21 42 -33 15 -32 15 -45 -7z"/>
<path d="M1180 1624 c-6 -14 -10 -27 -10 -28 0 -2 14 -9 31 -16 34 -14 44 -8
54 31 5 22 2 27 -17 33 -39 10 -48 7 -58 -20z"/>
<path d="M1472 1615 c-16 -35 -15 -42 6 -48 9 -2 24 -8 33 -11 12 -6 19 1 28
25 6 18 11 33 11 35 0 2 -59 24 -65 24 -1 0 -7 -11 -13 -25z"/>
<path d="M1265 1589 c-4 -17 -5 -31 -3 -33 1 -1 16 -7 31 -14 25 -11 28 -10
37 14 15 37 13 43 -16 54 -38 15 -42 13 -49 -21z"/>
<path d="M1560 1584 c-6 -14 -10 -29 -10 -33 0 -9 59 -36 63 -30 8 11 27 62
25 64 -2 1 -18 7 -36 13 -31 10 -33 9 -42 -14z"/>
<path d="M1019 1551 c-7 -23 -10 -44 -7 -46 9 -9 698 -265 713 -265 16 0 41
68 29 80 -8 8 -659 254 -706 267 -12 4 -20 -5 -29 -36z"/>
<path d="M1360 1571 c-17 -32 -12 -49 20 -59 25 -9 31 -8 40 8 16 30 12 46
-15 58 -33 15 -32 15 -45 -7z"/>
<path d="M1643 1539 c-11 -28 -10 -31 13 -40 40 -14 51 -11 59 18 5 20 2 31
-11 40 -29 21 -49 15 -61 -18z"/>
<path d="M1442 1535 c-16 -35 -15 -42 6 -48 9 -2 24 -8 33 -11 12 -6 19 1 28
25 6 18 11 33 11 35 0 2 -59 24 -65 24 -1 0 -7 -11 -13 -25z"/>
<path d="M1730 1521 c-17 -32 -12 -49 20 -59 25 -9 31 -8 40 8 16 30 12 46
-15 58 -33 15 -32 15 -45 -7z"/>
<path d="M1530 1504 c-15 -37 -13 -43 16 -54 37 -14 41 -13 52 20 11 31 10 34
-32 50 -24 9 -28 7 -36 -16z"/>
<path d="M1613 1460 c-11 -29 -10 -31 20 -44 36 -15 43 -12 52 26 6 24 3 29
-20 38 -37 14 -39 13 -52 -20z"/>
<path d="M1700 1441 c-17 -32 -12 -49 20 -59 25 -9 31 -8 40 8 16 30 12 46
-15 58 -33 15 -32 15 -45 -7z"/>
</g>
</svg>
