<?xml version="1.0" encoding="UTF-8"?>
<svg version="1.1" xmlns="http://www.w3.org/2000/svg" width="250" height="265">
<path d="M0 0 C13.4939815 12.16332206 20.76264149 26.87371401 22.59985352 44.96899414 C23.20958246 62.81019326 16.4049844 78.45859609 4.76391602 91.61352539 C-0.70680963 97.30238204 -6.65835806 100.81636727 -13.62280273 104.41040039 C-14.27909668 104.75232422 -14.93539062 105.09424805 -15.61157227 105.4465332 C-28.42641528 111.79854088 -45.16142356 112.35639203 -58.79077148 108.25805664 C-69.28616745 104.27802119 -77.81029677 99.26202523 -85.68530273 91.16040039 C-86.31952148 90.54680664 -86.95374023 89.93321289 -87.60717773 89.30102539 C-98.80714668 77.70459737 -103.22398409 61.7698881 -103.10522461 46.01611328 C-102.60409022 30.72348332 -96.89789061 15.29252898 -85.89624023 4.38696289 C-61.12324739 -17.22352023 -26.3857726 -22.75594052 0 0 Z " fill="#000000" transform="translate(166.685302734375,121.839599609375)"/>
<path d="M0 0 C0.495 0.99 0.495 0.99 1 2 C-0.07636719 2.03738281 -1.15273437 2.07476562 -2.26171875 2.11328125 C-18.71304603 2.80017242 -33.81649468 4.95974925 -45.7578125 17.38671875 C-48.3882314 20.80295462 -48.41157679 24.57932303 -48.32421875 28.71875 C-47.9121626 31.61803661 -46.86269413 33.62779609 -44.80078125 35.71875 C-37.81059382 40.69224561 -29.34659104 41.70190746 -21 42 C-20.21625 42.0515625 -19.4325 42.103125 -18.625 42.15625 C-7.83512288 42.60582821 5.12852773 37.1923874 13.1953125 30.05859375 C17.44028013 25.1471457 18.38549952 21.92958607 18.3671875 15.62109375 C17.77476735 11.39222223 15.76552529 9.18035408 13 6 C22.80519524 7.50982652 30.61394776 14.82826482 38 21 C38.61617187 21.48082031 39.23234375 21.96164063 39.8671875 22.45703125 C57.66921369 36.69044851 69.43444676 60.53418387 72 83 C74.02503977 112.70214221 67.91022474 138.43351661 48.29614258 161.31030273 C36.25073026 174.91642325 36.25073026 174.91642325 30 177 C30 173.44464145 30.84148517 172.38058104 32.75 169.4375 C39.60645787 158.29575596 42.39721974 146.97184909 42.375 133.9375 C42.37483887 133.03717041 42.37467773 132.13684082 42.37451172 131.20922852 C42.21184125 121.48923964 40.85910088 110.60192183 36 102 C37.65079442 100.34920558 39.63736179 100.77450553 41.91015625 100.68359375 C42.800979 100.64548584 43.69180176 100.60737793 44.60961914 100.56811523 C45.74906982 100.52501221 46.88852051 100.48190918 48.0625 100.4375 C53.4765625 100.2209375 53.4765625 100.2209375 59 100 C59 86.8 59 73.6 59 60 C36.89 59.67 14.78 59.34 -8 59 C-8 61.31 -8 63.62 -8 66 C-8.7425 65.82726562 -9.485 65.65453125 -10.25 65.4765625 C-15.53683218 64.80469424 -20.68721568 65.11834375 -26 65.375 C-27.06734375 65.41882813 -28.1346875 65.46265625 -29.234375 65.5078125 C-34.24772925 65.73229105 -39.04988881 66.14710922 -44 67 C-44.33 66.67 -44.66 66.34 -45 66 C-45 63.69 -45 61.38 -45 59 C-67.11 59 -89.22 59 -112 59 C-112 72.86 -112 86.72 -112 101 C-104.08 101 -96.16 101 -88 101 C-88.57611075 103.30444299 -89.18338475 105.6025499 -89.875 107.875 C-95.95322457 129.56321041 -95.88683071 149.14414133 -84.99414062 169.09204102 C-82.95099511 172.66001935 -80.64607408 175.85778703 -78 179 C-78.99 179.33 -79.98 179.66 -81 180 C-83.21140495 178.59934269 -85.16054875 177.1971568 -87.1875 175.5625 C-87.77047852 175.10020996 -88.35345703 174.63791992 -88.95410156 174.16162109 C-108.43702126 158.49856391 -122.51033864 135.81591373 -125.71875 110.765625 C-127.79536606 82.96204331 -123.20673535 56.64307482 -105.19140625 34.4765625 C-88.70535472 15.84526718 -70.46830149 3.32292875 -46 -2 C-44.6696875 -2.29003906 -44.6696875 -2.29003906 -43.3125 -2.5859375 C-29.48140512 -4.31482436 -13.34233944 -4.54473437 0 0 Z M-110 53 C-110 53.33 -110 53.66 -110 54 C-89.54 54 -69.08 54 -48 54 C-48 53.67 -48 53.34 -48 53 C-68.46 53 -88.92 53 -110 53 Z M-5 53 C-5 53.33 -5 53.66 -5 54 C15.46 54 35.92 54 57 54 C57 53.67 57 53.34 57 53 C36.54 53 16.08 53 -5 53 Z M-110 106 C-110 106.33 -110 106.66 -110 107 C-108.02 107 -106.04 107 -104 107 C-104 106.67 -104 106.34 -104 106 C-105.98 106 -107.96 106 -110 106 Z " fill="#010101" transform="translate(152,36)"/>
<path d="M0 0 C5.42351109 4.81189231 10.51028924 9.72842594 15 15.42578125 C15.76957031 16.39644531 16.53914062 17.36710937 17.33203125 18.3671875 C37.11950126 44.2008289 44.20614928 76.33369526 40.5 108.41015625 C35.91936184 141.07843476 18.54545473 168.81015112 -7 189.42578125 C-21.75740578 200.07105104 -37.25356124 207.39543871 -55 211.42578125 C-56.02738281 211.67199219 -57.05476562 211.91820312 -58.11328125 212.171875 C-88.9650636 218.22533703 -121.83975313 211.47754817 -148 194.42578125 C-162.90003032 184.20828089 -175.1705835 171.53901244 -185 156.42578125 C-185.63550781 155.47445312 -186.27101562 154.523125 -186.92578125 153.54296875 C-195.09326096 140.54019618 -199.7411333 125.53308175 -202 110.42578125 C-202.13019531 109.595625 -202.26039063 108.76546875 -202.39453125 107.91015625 C-206.346945 76.92323246 -199.01169225 45.40731764 -180.625 20.11328125 C-172.69975485 10.06913375 -164.2400313 1.16971094 -154 -6.57421875 C-152.85337891 -7.46173828 -152.85337891 -7.46173828 -151.68359375 -8.3671875 C-105.5297908 -42.49444958 -42.43874274 -36.41553576 0 0 Z M-164.75 17.23828125 C-186.24380843 42.24780556 -193.43965414 70.87618148 -192 103.42578125 C-190.1776544 124.96778156 -181.44715092 146.30521516 -167 162.42578125 C-165.93652344 163.66714844 -165.93652344 163.66714844 -164.8515625 164.93359375 C-146.74933115 185.70352235 -122.63564372 199.51676612 -95 202.42578125 C-80.18867175 203.05599775 -65.37911245 203.3764384 -51 199.42578125 C-49.76894531 199.09707031 -48.53789062 198.76835937 -47.26953125 198.4296875 C-33.30509735 194.24759279 -20.92578045 187.04643434 -10 177.42578125 C-9.18273437 176.74 -8.36546875 176.05421875 -7.5234375 175.34765625 C13.83425977 156.96548956 27.86819803 130.61957286 30 102.42578125 C31.63943759 68.25154391 22.65018837 40.02191806 -0.25 14.30078125 C-12.98666783 0.47533736 -29.92401776 -10.44734996 -48 -15.57421875 C-48.6688623 -15.76886719 -49.33772461 -15.96351562 -50.02685547 -16.1640625 C-92.56051839 -28.12390707 -134.97675469 -14.20351721 -164.75 17.23828125 Z " fill="#060606" transform="translate(206,40.57421875)"/>
<path d="M0 0 C0.66 0.33 1.32 0.66 2 1 C1.38253906 1.65484375 0.76507813 2.3096875 0.12890625 2.984375 C-26.30253066 31.46756729 -34.96301871 61.3122005 -34.13623047 99.65771484 C-33.45917866 116.26853785 -28.10927914 131.73282 -20.2578125 146.26953125 C-19.84273437 147.17058594 -19.42765625 148.07164062 -19 149 C-19.33 149.66 -19.66 150.32 -20 151 C-29.02958666 138.1336659 -33.69674491 122.40417004 -36 107 C-36.19529297 105.75476563 -36.19529297 105.75476563 -36.39453125 104.484375 C-40.34992836 73.47406169 -33.00463622 41.90962492 -14.5625 16.625 C-10.00583279 10.81243158 -5.06448844 5.37110674 0 0 Z " fill="#222222" transform="translate(40,44)"/>
<path d="M0 0 C16.20384551 7.47594638 27.3309259 27.44357512 33.6796875 43.24609375 C40.54694421 62.77104551 42.38615566 86.05058713 36 106 C35.34 106.99 34.68 107.98 34 109 C34.42107369 104.929621 34.85588816 100.88777294 35.51171875 96.84765625 C39.78733146 70.37524565 35.2216314 44.32683347 20 22 C17.45950435 18.87645502 14.72688908 15.98098948 11.90625 13.109375 C10 11 10 11 10 9 C9.40703125 8.74476562 8.8140625 8.48953125 8.203125 8.2265625 C5.78775462 6.88183502 4.48788294 5.50785633 2.75 3.375 C2.22921875 2.74335937 1.7084375 2.11171875 1.171875 1.4609375 C0.78515625 0.97882812 0.3984375 0.49671875 0 0 Z " fill="#161616" transform="translate(185,54)"/>
<path d="M0 0 C1.32 0.66 2.64 1.32 4 2 C4 2.99 4 3.98 4 5 C4.99 5.66 5.98 6.32 7 7 C6.375 8.9375 6.375 8.9375 5 11 C1.875 11.75 1.875 11.75 -1 12 C-2.125 8.25 -2.125 8.25 -1 6 C-0.64080679 4.00448218 -0.30503431 2.00451121 0 0 Z " fill="#090909" transform="translate(134,42)"/>
<path d="M0 0 C0.66 0.33 1.32 0.66 2 1 C1.38253906 1.65484375 0.76507813 2.3096875 0.12890625 2.984375 C-8.75340219 12.5561777 -16.56606883 22.5955416 -23 34 C-23.33 33.34 -23.66 32.68 -24 32 C-22.79131683 29.57048609 -21.53525786 27.30969589 -20.125 25 C-19.71660889 24.32517578 -19.30821777 23.65035156 -18.88745117 22.95507812 C-15.19860568 17.023522 -10.84220504 12.02356104 -6 7 C-3.97248993 4.6888054 -1.98828671 2.34515868 0 0 Z " fill="#2E2E2E" transform="translate(40,44)"/>
<path d="M0 0 C-0.625 1.9375 -0.625 1.9375 -2 4 C-5.125 4.75 -5.125 4.75 -8 5 C-8.33 3.68 -8.66 2.36 -9 1 C-5.92677456 0.08941469 -3.19902639 -0.08886184 0 0 Z " fill="#000000" transform="translate(141,49)"/>
</svg>
