<?xml version="1.0" encoding="UTF-8"?>
<svg version="1.1" xmlns="http://www.w3.org/2000/svg" width="250" height="262">
<path d="M0 0 C0.77601563 0.69480469 1.55203125 1.38960937 2.3515625 2.10546875 C3.23070312 2.83121094 4.10984375 3.55695312 5.015625 4.3046875 C22.84068536 19.49364739 34.00759225 40.98204043 37.3515625 64.10546875 C38.09997867 77.7493224 38.62024418 91.99336728 34.3515625 105.10546875 C34.05354736 106.0485791 34.05354736 106.0485791 33.74951172 107.01074219 C29.0610319 121.57136941 21.48471433 133.63568014 11.3515625 145.10546875 C10.76246094 145.78996094 10.17335937 146.47445312 9.56640625 147.1796875 C-7.43902454 165.60535207 -32.24646347 174.569055 -56.75 176.328125 C-83.30203646 177.10115897 -107.66500647 167.7695217 -127.203125 149.90625 C-135.13530465 142.40995124 -141.30375665 134.60467472 -146.6484375 125.10546875 C-147.22207031 124.09742188 -147.79570312 123.089375 -148.38671875 122.05078125 C-160.56277096 99.26978033 -161.64083159 72.29323482 -154.4296875 47.85546875 C-148.95008854 30.47320389 -139.49130116 17.82533928 -126.6484375 5.10546875 C-125.88917969 4.32429688 -125.12992188 3.543125 -124.34765625 2.73828125 C-92.21669009 -28.33205108 -33.62244136 -29.06823107 0 0 Z M-86.7734375 9.79296875 C-88.16949219 10.44845703 -88.16949219 10.44845703 -89.59375 11.1171875 C-90.27179688 11.44332031 -90.94984375 11.76945312 -91.6484375 12.10546875 C-91.6484375 13.42546875 -91.6484375 14.74546875 -91.6484375 16.10546875 C-92.51122314 16.05422852 -93.37400879 16.00298828 -94.26293945 15.95019531 C-97.46594156 15.76979312 -100.66919333 15.60789934 -103.8737793 15.45849609 C-105.2602325 15.3900573 -106.64634299 15.31426201 -108.03198242 15.23095703 C-110.02417034 15.11246789 -112.01799797 15.02264331 -114.01171875 14.93359375 C-115.21094971 14.87075195 -116.41018066 14.80791016 -117.64575195 14.74316406 C-120.71140387 14.81270175 -120.71140387 14.81270175 -122.54760742 16.88574219 C-124.10804888 20.03223447 -123.90923995 22.64983628 -123.6484375 26.10546875 C-123.3184375 26.43546875 -122.9884375 26.76546875 -122.6484375 27.10546875 C-122.55098046 28.45429461 -122.52212174 29.8081653 -122.52145386 31.1605072 C-122.51863403 32.03406357 -122.51581421 32.90761993 -122.51290894 33.80764771 C-122.51493317 34.77338715 -122.5169574 35.73912659 -122.51904297 36.73413086 C-122.51729065 37.74543564 -122.51553833 38.75674042 -122.51373291 39.7986908 C-122.50931187 43.16008187 -122.51225349 46.52142084 -122.515625 49.8828125 C-122.51495198 52.20829783 -122.51398197 54.5337831 -122.51272583 56.85926819 C-122.51124847 61.74106514 -122.51340443 66.62284384 -122.51806641 71.50463867 C-122.52376055 77.77419712 -122.52048691 84.04371274 -122.51449394 90.31326962 C-122.51088666 95.11809107 -122.51202775 99.92290232 -122.51462173 104.72772408 C-122.5152907 107.03988208 -122.51446363 109.35204099 -122.51214218 111.66419792 C-122.50961328 114.89196109 -122.51345981 118.11965418 -122.51904297 121.34741211 C-122.51701874 122.31112732 -122.51499451 123.27484253 -122.51290894 124.26776123 C-122.51572876 125.14413742 -122.51854858 126.02051361 -122.52145386 126.92344666 C-122.5220194 128.06913069 -122.5220194 128.06913069 -122.52259636 129.23795986 C-122.6484375 131.10546875 -122.6484375 131.10546875 -123.6484375 133.10546875 C-124.00363653 136.94161832 -124.19568344 139.25176509 -122.0859375 142.54296875 C-118.78390873 144.65965386 -116.50153998 144.45575079 -112.6484375 144.10546875 C-111.6584375 143.77546875 -110.6684375 143.44546875 -109.6484375 143.10546875 C-108.6584375 145.58046875 -108.6584375 145.58046875 -107.6484375 148.10546875 C-104.0184375 148.10546875 -100.3884375 148.10546875 -96.6484375 148.10546875 C-95.9884375 146.45546875 -95.3284375 144.80546875 -94.6484375 143.10546875 C-70.8884375 143.10546875 -47.1284375 143.10546875 -22.6484375 143.10546875 C-22.1534375 145.58046875 -22.1534375 145.58046875 -21.6484375 148.10546875 C-17.6884375 148.10546875 -13.7284375 148.10546875 -9.6484375 148.10546875 C-9.3184375 146.45546875 -8.9884375 144.80546875 -8.6484375 143.10546875 C-7.63523438 143.26595703 -7.63523438 143.26595703 -6.6015625 143.4296875 C-5.70953125 143.54957031 -4.8175 143.66945312 -3.8984375 143.79296875 C-3.01671875 143.92058594 -2.135 144.04820312 -1.2265625 144.1796875 C2.02115895 144.08619249 3.03580864 143.3448255 5.3515625 141.10546875 C5.94948872 138.76892072 5.94948872 138.76892072 5.85276794 136.09533691 C5.86260208 135.06060745 5.87243622 134.02587799 5.88256836 132.95979309 C5.86806641 131.25783028 5.86806641 131.25783028 5.85327148 129.52148438 C5.85867447 128.32617599 5.86407745 127.13086761 5.86964417 125.89933777 C5.88001854 122.62026089 5.87241693 119.34183749 5.85593295 116.06280327 C5.84209228 112.63288832 5.8485414 109.20300408 5.85206604 105.77307129 C5.85476896 100.01285351 5.84128575 94.25284401 5.81811523 88.49267578 C5.79150479 81.83119581 5.78975798 75.17006412 5.8015036 68.50854921 C5.81227942 62.10287802 5.80609591 55.69733293 5.79194832 49.29167175 C5.78618675 46.5644381 5.78627249 43.83729667 5.79101372 41.11006165 C5.79391403 37.30297626 5.77747443 33.49646598 5.75561523 29.68945312 C5.76011688 28.55481125 5.76461853 27.42016937 5.76925659 26.25114441 C5.75935196 25.21641495 5.74944733 24.18168549 5.73924255 23.11560059 C5.73681266 22.21521812 5.73438276 21.31483566 5.73187923 20.38716888 C5.51746586 18.05175343 5.51746586 18.05175343 4.04368687 16.30788422 C1.19460911 14.28334322 -2.03213667 14.85956205 -5.37890625 15.03125 C-6.12932693 15.05769089 -6.87974762 15.08413177 -7.65290833 15.1113739 C-10.04806458 15.19909755 -12.44169753 15.30825576 -14.8359375 15.41796875 C-16.46023199 15.48123194 -18.08458155 15.54309786 -19.70898438 15.60351562 C-23.68962231 15.75463116 -27.66902783 15.92497444 -31.6484375 16.10546875 C-30.6484375 13.10546875 -30.6484375 13.10546875 -28.6484375 11.10546875 C-31.06384056 10.12308467 -33.48065572 9.14446657 -35.8984375 8.16796875 C-36.92130859 7.7512793 -36.92130859 7.7512793 -37.96484375 7.32617188 C-45.23792872 4.39575415 -50.98271477 3.89491545 -58.7734375 3.85546875 C-59.76859375 3.83484375 -60.76375 3.81421875 -61.7890625 3.79296875 C-70.96027518 3.7450773 -78.50734243 5.87187237 -86.7734375 9.79296875 Z M-27.6484375 13.10546875 C-26.6484375 15.10546875 -26.6484375 15.10546875 -26.6484375 15.10546875 Z " fill="#020202" transform="translate(185.6484375,52.89453125)"/>
<path d="M0 0 C0.94224426 -0.00708481 1.88448853 -0.01416962 2.85528564 -0.02146912 C3.89223572 -0.0189917 4.92918579 -0.01651428 5.99755859 -0.01396179 C7.08703796 -0.01907272 8.17651733 -0.02418365 9.29901123 -0.02944946 C12.9147281 -0.04339541 16.53025546 -0.04238506 20.14599609 -0.04008484 C22.64941479 -0.04396873 25.15283283 -0.04830275 27.65625 -0.05307007 C32.90870793 -0.06054284 38.16111642 -0.06037064 43.41357422 -0.05497742 C49.49052872 -0.04893372 55.56725192 -0.06125677 61.64416695 -0.08254749 C67.48437686 -0.10225878 73.32449579 -0.10534077 79.16473389 -0.10181236 C81.65273584 -0.10232745 84.14074134 -0.10760001 86.62872314 -0.11762428 C90.10081043 -0.1298968 93.57235564 -0.1232524 97.04443359 -0.11161804 C98.5998587 -0.12308365 98.5998587 -0.12308365 100.18670654 -0.13478088 C101.12895081 -0.12776657 102.07119507 -0.12075226 103.04199219 -0.11352539 C104.27422012 -0.113777 104.27422012 -0.113777 105.53134155 -0.1140337 C106.18792755 0.00962724 106.84451355 0.13328817 107.52099609 0.26069641 C109.6337951 3.42989493 109.77253079 4.19188944 109.7816925 7.81526184 C109.78877731 8.74902145 109.79586212 9.68278107 109.80316162 10.64483643 C109.8006842 11.66726944 109.79820679 12.68970245 109.7956543 13.74311829 C109.80076523 14.82138382 109.80587616 15.89964935 109.81114197 17.0105896 C109.82507034 20.58359794 109.8240789 24.15641412 109.82177734 27.72944641 C109.82566215 30.20662 109.82999637 32.68379292 109.83476257 35.16096497 C109.84223154 40.35617735 109.84192834 45.55132179 109.83666992 50.74653625 C109.8312947 56.0893831 109.83835062 61.43204061 109.85717773 66.77485657 C109.87959039 73.21683741 109.88743716 79.65865981 109.88350487 86.10067749 C109.88401952 88.55994212 109.88928408 91.01921037 109.89931679 93.47845459 C109.91160537 96.91191326 109.90493512 100.34482511 109.89331055 103.77827454 C109.90095428 104.80070755 109.90859802 105.82314056 109.91647339 106.8765564 C109.90945908 107.81031601 109.90244476 108.74407562 109.8952179 109.70613098 C109.89538564 110.51802132 109.89555338 111.32991165 109.8957262 112.16640472 C109.41805781 114.83599789 108.72902004 115.70566531 106.52099609 117.26069641 C104.44232178 117.63542652 104.44232178 117.63542652 102.00439453 117.63491821 C101.07904907 117.64193253 100.15370361 117.64894684 99.20031738 117.65617371 C98.18723511 117.64852997 97.17415283 117.64088623 96.13037109 117.63301086 C94.52760315 117.63848686 94.52760315 117.63848686 92.89245605 117.64407349 C89.35180896 117.65219569 85.81161711 117.63855462 82.27099609 117.62397766 C79.81624349 117.62345926 77.36149047 117.62397619 74.90673828 117.62548828 C69.75856338 117.62539848 64.61054482 117.61495329 59.46240234 117.59687805 C52.85440505 117.57419078 46.24663635 117.57364602 39.63861084 117.5803957 C34.56866413 117.58373287 29.49876979 117.57711031 24.42883301 117.56726646 C21.99190546 117.56340984 19.55497208 117.56226815 17.11804199 117.56385231 C13.71578823 117.56422205 10.31383051 117.55162814 6.91162109 117.53535461 C5.89853882 117.53783203 4.88545654 117.54030945 3.8416748 117.54286194 C2.91632935 117.53577713 1.99098389 117.52869232 1.03759766 117.52139282 C0.23308167 117.51933995 -0.57143433 117.51728708 -1.40032959 117.515172 C-3.47900391 117.26069641 -3.47900391 117.26069641 -6.47900391 115.26069641 C-6.85373402 113.2554245 -6.85373402 113.2554245 -6.85322571 110.74372864 C-6.86024002 109.79307022 -6.86725433 108.8424118 -6.8744812 107.86294556 C-6.86683746 106.81664474 -6.85919373 105.77034393 -6.85131836 104.69233704 C-6.85496902 103.5931041 -6.85861969 102.49387115 -6.86238098 101.36132812 C-6.87051387 97.7130457 -6.85685331 94.06520362 -6.84228516 90.41694641 C-6.84176688 87.8911082 -6.84228332 85.36526958 -6.84379578 82.83943176 C-6.84370593 77.53984582 -6.83358759 72.24041565 -6.81518555 66.94087219 C-6.79401703 60.80942367 -6.79050769 54.6781624 -6.79674751 48.54668474 C-6.80243768 42.65414932 -6.79669569 36.76167046 -6.78557396 30.86914062 C-6.78171395 28.35881822 -6.78057704 25.84849016 -6.78215981 23.33816528 C-6.78252904 19.83501815 -6.76994994 16.33215972 -6.75366211 12.82905579 C-6.75613953 11.78275497 -6.75861694 10.73645416 -6.76116943 9.65844727 C-6.75408463 8.70778885 -6.74699982 7.75713043 -6.73970032 6.77766418 C-6.73764745 5.94880455 -6.73559458 5.11994492 -6.7334795 4.26596832 C-6.1964565 0.03421813 -3.63611001 0.00908654 0 0 Z M-3.47900391 3.26069641 C-3.47900391 15.80069641 -3.47900391 28.34069641 -3.47900391 41.26069641 C32.82099609 41.26069641 69.12099609 41.26069641 106.52099609 41.26069641 C106.52099609 29.05069641 106.52099609 16.84069641 106.52099609 4.26069641 C101.71711223 3.12995232 101.71711223 3.12995232 97.52099609 3.26069641 C97.48361328 4.22491516 97.44623047 5.18913391 97.40771484 6.18257141 C97.34197266 7.44585266 97.27623047 8.70913391 97.20849609 10.01069641 C97.15048828 11.26366516 97.09248047 12.51663391 97.03271484 13.80757141 C96.48490581 17.50423696 96.22683671 18.75625044 93.52099609 21.26069641 C90.75755605 21.65814594 88.38956615 21.797621 85.62475586 21.7624054 C84.82119659 21.76780838 84.01763733 21.77321136 83.18972778 21.77877808 C80.53024597 21.79129761 77.87184007 21.77475207 75.21240234 21.75679016 C73.36539147 21.75694509 71.51838027 21.75843305 69.67137146 21.76119995 C65.7984278 21.76258544 61.92585378 21.75000218 58.05297852 21.72724915 C53.08834692 21.69888389 48.12433064 21.70159444 43.15965366 21.71433926 C39.34464768 21.72129497 35.52978389 21.71350805 31.71479607 21.70108223 C29.88436363 21.69656528 28.05391595 21.69623305 26.22348213 21.70014763 C23.66421367 21.70305829 21.10579229 21.68655954 18.54663086 21.66474915 C17.41110527 21.67150162 17.41110527 21.67150162 16.25263977 21.6783905 C13.112945 21.63393613 10.85015804 21.43647141 8.05747986 19.94515991 C5.60784725 17.25960161 5.90114803 14.6198368 5.77099609 11.07319641 C5.71427734 9.80089172 5.65755859 8.52858704 5.59912109 7.21772766 C5.56044922 5.75399719 5.56044922 5.75399719 5.52099609 4.26069641 C2.36762809 3.55994797 -0.20625364 3.26069641 -3.47900391 3.26069641 Z M8.52099609 3.26069641 C8.50037109 5.55007141 8.47974609 7.83944641 8.45849609 10.19819641 C8.44689453 11.48596985 8.43529297 12.77374329 8.42333984 14.10054016 C8.1556706 17.12368044 8.1556706 17.12368044 9.52099609 18.26069641 C11.73954874 18.34853183 13.96088106 18.3676425 16.18115234 18.35835266 C16.84561874 18.35693771 17.51008514 18.35552277 18.19468689 18.35406494 C20.32433508 18.34845159 22.45387949 18.33589695 24.58349609 18.32319641 C26.02424979 18.31818313 27.46500512 18.31361992 28.90576172 18.30952454 C32.44420711 18.29847786 35.98259148 18.28120433 39.52099609 18.26069641 C38.16566349 15.72396353 38.16566349 15.72396353 36.52099609 13.26069641 C35.86099609 13.26069641 35.20099609 13.26069641 34.52099609 13.26069641 C34.39599609 10.88569641 34.39599609 10.88569641 34.52099609 8.26069641 C36.52099609 6.26069641 36.52099609 6.26069641 40.14599609 6.13569641 C41.81662109 6.19757141 41.81662109 6.19757141 43.52099609 6.26069641 C44.01599609 7.25069641 44.01599609 7.25069641 44.52099609 8.26069641 C45.18099609 8.26069641 45.84099609 8.26069641 46.52099609 8.26069641 C46.04662109 9.02382141 45.57224609 9.78694641 45.08349609 10.57319641 C43.41993513 13.22480189 43.41993513 13.22480189 42.52099609 16.26069641 C42.19099609 16.92069641 41.86099609 17.58069641 41.52099609 18.26069641 C58.68099609 18.26069641 75.84099609 18.26069641 93.52099609 18.26069641 C95.19941266 13.88197887 95.19941266 13.88197887 93.52099609 3.26069641 C81.14599609 3.75569641 81.14599609 3.75569641 68.52099609 4.26069641 C69.18099609 4.92069641 69.84099609 5.58069641 70.52099609 6.26069641 C72.20849609 8.13569641 72.20849609 8.13569641 73.52099609 10.26069641 C73.20849609 12.51069641 73.20849609 12.51069641 72.52099609 14.26069641 C71.20099609 14.59069641 69.88099609 14.92069641 68.52099609 15.26069641 C68.52099609 15.92069641 68.52099609 16.58069641 68.52099609 17.26069641 C67.86099609 17.26069641 67.20099609 17.26069641 66.52099609 17.26069641 C66.52099609 16.60069641 66.52099609 15.94069641 66.52099609 15.26069641 C65.86099609 14.93069641 65.20099609 14.60069641 64.52099609 14.26069641 C63.53099609 13.60069641 62.54099609 12.94069641 61.52099609 12.26069641 C62.18099609 9.95069641 62.84099609 7.64069641 63.52099609 5.26069641 C64.51099609 5.59069641 65.50099609 5.92069641 66.52099609 6.26069641 C66.85099609 5.60069641 67.18099609 4.94069641 67.52099609 4.26069641 C63.56099609 4.26069641 59.60099609 4.26069641 55.52099609 4.26069641 C56.01599609 5.25069641 56.01599609 5.25069641 56.52099609 6.26069641 C57.18099609 6.26069641 57.84099609 6.26069641 58.52099609 6.26069641 C59.01599609 10.22069641 59.01599609 10.22069641 59.52099609 14.26069641 C58.86099609 14.26069641 58.20099609 14.26069641 57.52099609 14.26069641 C57.19099609 14.92069641 56.86099609 15.58069641 56.52099609 16.26069641 C55.53099609 16.59069641 54.54099609 16.92069641 53.52099609 17.26069641 C53.52099609 16.60069641 53.52099609 15.94069641 53.52099609 15.26069641 C52.88162109 15.13694641 52.24224609 15.01319641 51.58349609 14.88569641 C50.90287109 14.67944641 50.22224609 14.47319641 49.52099609 14.26069641 C48.52099609 12.26069641 48.52099609 12.26069641 48.52099609 9.26069641 C50.52099609 6.26069641 50.52099609 6.26069641 54.52099609 4.26069641 C45.28099609 4.26069641 36.04099609 4.26069641 26.52099609 4.26069641 C28.17099609 5.58069641 29.82099609 6.90069641 31.52099609 8.26069641 C32.33349609 11.01069641 32.33349609 11.01069641 32.52099609 13.26069641 C30.87099609 13.92069641 29.22099609 14.58069641 27.52099609 15.26069641 C27.52099609 15.92069641 27.52099609 16.58069641 27.52099609 17.26069641 C25.87099609 17.26069641 24.22099609 17.26069641 22.52099609 17.26069641 C22.52099609 13.63069641 22.52099609 10.00069641 22.52099609 6.26069641 C23.51099609 5.93069641 24.50099609 5.60069641 25.52099609 5.26069641 C25.52099609 4.93069641 25.52099609 4.60069641 25.52099609 4.26069641 C19.91099609 3.93069641 14.30099609 3.60069641 8.52099609 3.26069641 Z M25.52099609 10.26069641 C25.52099609 10.92069641 25.52099609 11.58069641 25.52099609 12.26069641 C26.18099609 12.26069641 26.84099609 12.26069641 27.52099609 12.26069641 C27.52099609 11.60069641 27.52099609 10.94069641 27.52099609 10.26069641 C26.86099609 10.26069641 26.20099609 10.26069641 25.52099609 10.26069641 Z M39.52099609 10.26069641 C39.19099609 10.92069641 38.86099609 11.58069641 38.52099609 12.26069641 C39.51099609 12.26069641 40.50099609 12.26069641 41.52099609 12.26069641 C41.52099609 11.60069641 41.52099609 10.94069641 41.52099609 10.26069641 C40.86099609 10.26069641 40.20099609 10.26069641 39.52099609 10.26069641 Z M52.52099609 10.26069641 C53.18099609 10.92069641 53.84099609 11.58069641 54.52099609 12.26069641 C54.52099609 11.60069641 54.52099609 10.94069641 54.52099609 10.26069641 C53.86099609 10.26069641 53.20099609 10.26069641 52.52099609 10.26069641 Z " fill="#000000" transform="translate(75.47900390625,73.73930358886719)"/>
<path d="M0 0 C25.0874203 22.56116288 42.05287942 50.44261647 43.94433594 84.93237305 C45.08484797 120.55893719 34.54974685 150.8735003 10.17700195 177.20068359 C-12.74824585 201.22473643 -42.36015997 213.09626041 -75.30957031 214.58056641 C-104.99184345 215.1457508 -135.1451083 204.73641559 -156.66430664 184.09301758 C-157.69131853 183.08721764 -158.71462646 182.07761934 -159.73388672 181.06396484 C-161.08390023 179.73170868 -162.4694879 178.43576987 -163.85742188 177.14306641 C-185.76527994 156.35956187 -196.58640704 127.04114581 -198.53320312 97.27197266 C-198.76284056 86.88609767 -197.14080055 76.79883807 -195.18164062 66.63525391 C-194.97667969 65.54341797 -194.77171875 64.45158203 -194.56054688 63.32666016 C-190.79696048 46.09831746 -181.58231201 29.88986625 -170.18164062 16.63525391 C-169.48167969 15.81283203 -168.78171875 14.99041016 -168.06054688 14.14306641 C-148.44790767 -8.30134424 -121.58531181 -24.79172216 -91.33935547 -27.23583984 C-57.90082011 -29.23352559 -25.78660136 -22.51592791 0 0 Z M-162.18164062 22.63525391 C-165.08090923 26.16780986 -167.6863067 29.80835351 -170.18164062 33.63525391 C-170.78621094 34.55693359 -171.39078125 35.47861328 -172.01367188 36.42822266 C-187.10512714 60.7915524 -190.76460452 90.92376458 -184.72509766 118.73779297 C-179.42701473 140.8767562 -167.61008178 159.00820012 -151.18164062 174.63525391 C-150.52292969 175.28880859 -149.86421875 175.94236328 -149.18554688 176.61572266 C-132.45124913 192.5806274 -108.36296716 202.72618228 -85.18164062 203.63525391 C-84.06273438 203.68681641 -82.94382812 203.73837891 -81.79101562 203.79150391 C-50.64623263 204.53600071 -23.43580308 194.14558109 -0.59765625 172.97485352 C19.38722333 153.90280735 32.35393809 128.40097357 33.02148438 100.51025391 C33.33229494 73.38908138 28.43964073 49.66264899 11.81835938 27.63525391 C11.14933594 26.74837891 10.4803125 25.86150391 9.79101562 24.94775391 C-8.21840453 2.02075247 -33.78688538 -13.10078707 -62.86914062 -16.61474609 C-101.79281943 -20.7529976 -136.11808602 -6.3724821 -162.18164062 22.63525391 Z " fill="#070707" transform="translate(202.181640625,37.36474609375)"/>
<path d="M0 0 C0.94224426 -0.00708481 1.88448853 -0.01416962 2.85528564 -0.02146912 C3.89223572 -0.0189917 4.92918579 -0.01651428 5.99755859 -0.01396179 C7.08703796 -0.01907272 8.17651733 -0.02418365 9.29901123 -0.02944946 C12.9147281 -0.04339541 16.53025546 -0.04238506 20.14599609 -0.04008484 C22.64941479 -0.04396873 25.15283283 -0.04830275 27.65625 -0.05307007 C32.90870793 -0.06054284 38.16111642 -0.06037064 43.41357422 -0.05497742 C49.49052872 -0.04893372 55.56725192 -0.06125677 61.64416695 -0.08254749 C67.48437686 -0.10225878 73.32449579 -0.10534077 79.16473389 -0.10181236 C81.65273584 -0.10232745 84.14074134 -0.10760001 86.62872314 -0.11762428 C90.10081043 -0.1298968 93.57235564 -0.1232524 97.04443359 -0.11161804 C98.5998587 -0.12308365 98.5998587 -0.12308365 100.18670654 -0.13478088 C101.12895081 -0.12776657 102.07119507 -0.12075226 103.04199219 -0.11352539 C104.27422012 -0.113777 104.27422012 -0.113777 105.53134155 -0.1140337 C106.18792755 0.00962724 106.84451355 0.13328817 107.52099609 0.26069641 C109.64148473 3.44142937 109.76972608 4.19767588 109.76150513 7.83544922 C109.76425446 8.77354431 109.76700378 9.7116394 109.76983643 10.67816162 C109.7590506 12.21888084 109.7590506 12.21888084 109.74804688 13.79072571 C109.74833893 14.87381012 109.74863098 15.95689453 109.74893188 17.07279968 C109.74753622 20.66025242 109.73196368 24.24749862 109.71630859 27.83491516 C109.71257931 30.31927375 109.70973194 32.8036338 109.70773315 35.28799438 C109.70087166 41.16343941 109.68510151 47.03880793 109.66503417 52.91422158 C109.6404908 60.25951891 109.62974535 67.60482057 109.61865234 74.95014954 C109.59719048 88.05370296 109.56342975 101.15719498 109.52099609 114.26069641 C108.86099609 114.26069641 108.20099609 114.26069641 107.52099609 114.26069641 C107.52099609 90.83069641 107.52099609 67.40069641 107.52099609 43.26069641 C70.56099609 43.26069641 33.60099609 43.26069641 -4.47900391 43.26069641 C-4.47900391 44.25069641 -4.47900391 45.24069641 -4.47900391 46.26069641 C-5.13900391 46.26069641 -5.79900391 46.26069641 -6.47900391 46.26069641 C-6.52960271 40.03107664 -6.56469453 33.80150961 -6.58886719 27.57173157 C-6.59894142 25.45126871 -6.61260124 23.3308198 -6.62988281 21.21040344 C-6.6540688 18.16723698 -6.6654726 15.12425375 -6.67431641 12.08100891 C-6.68463898 11.12888519 -6.69496155 10.17676147 -6.70559692 9.19578552 C-6.70574799 8.3150235 -6.70589905 7.43426147 -6.70605469 6.52680969 C-6.71049591 5.74959564 -6.71493713 4.97238159 -6.71951294 4.1716156 C-6.19400287 -0.00372558 -3.55315403 0.00887924 0 0 Z M-3.47900391 3.26069641 C-3.47900391 15.80069641 -3.47900391 28.34069641 -3.47900391 41.26069641 C32.82099609 41.26069641 69.12099609 41.26069641 106.52099609 41.26069641 C106.52099609 29.05069641 106.52099609 16.84069641 106.52099609 4.26069641 C101.71711223 3.12995232 101.71711223 3.12995232 97.52099609 3.26069641 C97.48361328 4.22491516 97.44623047 5.18913391 97.40771484 6.18257141 C97.34197266 7.44585266 97.27623047 8.70913391 97.20849609 10.01069641 C97.15048828 11.26366516 97.09248047 12.51663391 97.03271484 13.80757141 C96.48490581 17.50423696 96.22683671 18.75625044 93.52099609 21.26069641 C90.75755605 21.65814594 88.38956615 21.797621 85.62475586 21.7624054 C84.82119659 21.76780838 84.01763733 21.77321136 83.18972778 21.77877808 C80.53024597 21.79129761 77.87184007 21.77475207 75.21240234 21.75679016 C73.36539147 21.75694509 71.51838027 21.75843305 69.67137146 21.76119995 C65.7984278 21.76258544 61.92585378 21.75000218 58.05297852 21.72724915 C53.08834692 21.69888389 48.12433064 21.70159444 43.15965366 21.71433926 C39.34464768 21.72129497 35.52978389 21.71350805 31.71479607 21.70108223 C29.88436363 21.69656528 28.05391595 21.69623305 26.22348213 21.70014763 C23.66421367 21.70305829 21.10579229 21.68655954 18.54663086 21.66474915 C17.41110527 21.67150162 17.41110527 21.67150162 16.25263977 21.6783905 C13.112945 21.63393613 10.85015804 21.43647141 8.05747986 19.94515991 C5.60784725 17.25960161 5.90114803 14.6198368 5.77099609 11.07319641 C5.71427734 9.80089172 5.65755859 8.52858704 5.59912109 7.21772766 C5.56044922 5.75399719 5.56044922 5.75399719 5.52099609 4.26069641 C2.36762809 3.55994797 -0.20625364 3.26069641 -3.47900391 3.26069641 Z M8.52099609 3.26069641 C8.50037109 5.55007141 8.47974609 7.83944641 8.45849609 10.19819641 C8.44689453 11.48596985 8.43529297 12.77374329 8.42333984 14.10054016 C8.1556706 17.12368044 8.1556706 17.12368044 9.52099609 18.26069641 C11.73954874 18.34853183 13.96088106 18.3676425 16.18115234 18.35835266 C16.84561874 18.35693771 17.51008514 18.35552277 18.19468689 18.35406494 C20.32433508 18.34845159 22.45387949 18.33589695 24.58349609 18.32319641 C26.02424979 18.31818313 27.46500512 18.31361992 28.90576172 18.30952454 C32.44420711 18.29847786 35.98259148 18.28120433 39.52099609 18.26069641 C38.16566349 15.72396353 38.16566349 15.72396353 36.52099609 13.26069641 C35.86099609 13.26069641 35.20099609 13.26069641 34.52099609 13.26069641 C34.39599609 10.88569641 34.39599609 10.88569641 34.52099609 8.26069641 C36.52099609 6.26069641 36.52099609 6.26069641 40.14599609 6.13569641 C41.81662109 6.19757141 41.81662109 6.19757141 43.52099609 6.26069641 C44.01599609 7.25069641 44.01599609 7.25069641 44.52099609 8.26069641 C45.18099609 8.26069641 45.84099609 8.26069641 46.52099609 8.26069641 C46.04662109 9.02382141 45.57224609 9.78694641 45.08349609 10.57319641 C43.41993513 13.22480189 43.41993513 13.22480189 42.52099609 16.26069641 C42.19099609 16.92069641 41.86099609 17.58069641 41.52099609 18.26069641 C58.68099609 18.26069641 75.84099609 18.26069641 93.52099609 18.26069641 C95.19941266 13.88197887 95.19941266 13.88197887 93.52099609 3.26069641 C81.14599609 3.75569641 81.14599609 3.75569641 68.52099609 4.26069641 C69.18099609 4.92069641 69.84099609 5.58069641 70.52099609 6.26069641 C72.20849609 8.13569641 72.20849609 8.13569641 73.52099609 10.26069641 C73.20849609 12.51069641 73.20849609 12.51069641 72.52099609 14.26069641 C71.20099609 14.59069641 69.88099609 14.92069641 68.52099609 15.26069641 C68.52099609 15.92069641 68.52099609 16.58069641 68.52099609 17.26069641 C67.86099609 17.26069641 67.20099609 17.26069641 66.52099609 17.26069641 C66.52099609 16.60069641 66.52099609 15.94069641 66.52099609 15.26069641 C65.86099609 14.93069641 65.20099609 14.60069641 64.52099609 14.26069641 C63.53099609 13.60069641 62.54099609 12.94069641 61.52099609 12.26069641 C62.18099609 9.95069641 62.84099609 7.64069641 63.52099609 5.26069641 C64.51099609 5.59069641 65.50099609 5.92069641 66.52099609 6.26069641 C66.85099609 5.60069641 67.18099609 4.94069641 67.52099609 4.26069641 C63.56099609 4.26069641 59.60099609 4.26069641 55.52099609 4.26069641 C56.01599609 5.25069641 56.01599609 5.25069641 56.52099609 6.26069641 C57.18099609 6.26069641 57.84099609 6.26069641 58.52099609 6.26069641 C59.01599609 10.22069641 59.01599609 10.22069641 59.52099609 14.26069641 C58.86099609 14.26069641 58.20099609 14.26069641 57.52099609 14.26069641 C57.19099609 14.92069641 56.86099609 15.58069641 56.52099609 16.26069641 C55.53099609 16.59069641 54.54099609 16.92069641 53.52099609 17.26069641 C53.52099609 16.60069641 53.52099609 15.94069641 53.52099609 15.26069641 C52.88162109 15.13694641 52.24224609 15.01319641 51.58349609 14.88569641 C50.90287109 14.67944641 50.22224609 14.47319641 49.52099609 14.26069641 C48.52099609 12.26069641 48.52099609 12.26069641 48.52099609 9.26069641 C50.52099609 6.26069641 50.52099609 6.26069641 54.52099609 4.26069641 C45.28099609 4.26069641 36.04099609 4.26069641 26.52099609 4.26069641 C28.17099609 5.58069641 29.82099609 6.90069641 31.52099609 8.26069641 C32.33349609 11.01069641 32.33349609 11.01069641 32.52099609 13.26069641 C30.87099609 13.92069641 29.22099609 14.58069641 27.52099609 15.26069641 C27.52099609 15.92069641 27.52099609 16.58069641 27.52099609 17.26069641 C25.87099609 17.26069641 24.22099609 17.26069641 22.52099609 17.26069641 C22.52099609 13.63069641 22.52099609 10.00069641 22.52099609 6.26069641 C23.51099609 5.93069641 24.50099609 5.60069641 25.52099609 5.26069641 C25.52099609 4.93069641 25.52099609 4.60069641 25.52099609 4.26069641 C19.91099609 3.93069641 14.30099609 3.60069641 8.52099609 3.26069641 Z M25.52099609 10.26069641 C25.52099609 10.92069641 25.52099609 11.58069641 25.52099609 12.26069641 C26.18099609 12.26069641 26.84099609 12.26069641 27.52099609 12.26069641 C27.52099609 11.60069641 27.52099609 10.94069641 27.52099609 10.26069641 C26.86099609 10.26069641 26.20099609 10.26069641 25.52099609 10.26069641 Z M39.52099609 10.26069641 C39.19099609 10.92069641 38.86099609 11.58069641 38.52099609 12.26069641 C39.51099609 12.26069641 40.50099609 12.26069641 41.52099609 12.26069641 C41.52099609 11.60069641 41.52099609 10.94069641 41.52099609 10.26069641 C40.86099609 10.26069641 40.20099609 10.26069641 39.52099609 10.26069641 Z M52.52099609 10.26069641 C53.18099609 10.92069641 53.84099609 11.58069641 54.52099609 12.26069641 C54.52099609 11.60069641 54.52099609 10.94069641 54.52099609 10.26069641 C53.86099609 10.26069641 53.20099609 10.26069641 52.52099609 10.26069641 Z " fill="#494949" transform="translate(75.47900390625,73.73930358886719)"/>
<path d="M0 0 C3.63 0 7.26 0 11 0 C12.18778147 2.37556294 12.12324578 3.80424159 12.12025452 6.45449829 C12.12231651 7.85957893 12.12231651 7.85957893 12.12442017 9.29304504 C12.11902725 10.83915718 12.11902725 10.83915718 12.11352539 12.41650391 C12.11367142 13.49944229 12.11381744 14.58238068 12.1139679 15.69813538 C12.11326915 19.29096453 12.10547852 22.88374236 12.09765625 26.4765625 C12.09579193 28.96235119 12.0943681 31.44814025 12.09336853 33.93392944 C12.08993565 39.81646397 12.08204773 45.69897943 12.07201904 51.58150613 C12.05975492 58.93454246 12.05437626 66.28758107 12.04882812 73.640625 C12.03809268 86.76042609 12.02120886 99.88021188 12 113 C11.34 113 10.68 113 10 113 C10 89.57 10 66.14 10 42 C-26.96 42 -63.92 42 -102 42 C-102 42.99 -102 43.98 -102 45 C-102.66 45 -103.32 45 -104 45 C-104 43.68 -104 42.36 -104 41 C-101.0539922 40.15219097 -98.44237152 39.87621847 -95.38092041 39.87974548 C-94.45827896 39.87837082 -93.53563751 39.87699615 -92.58503723 39.87557983 C-91.58018784 39.87917511 -90.57533844 39.88277039 -89.54003906 39.88647461 C-87.94445412 39.88625557 -87.94445412 39.88625557 -86.31663513 39.8860321 C-82.79961103 39.88672894 -79.28263985 39.89451067 -75.765625 39.90234375 C-73.32753529 39.90420874 -70.8894452 39.90563226 -68.45135498 39.90663147 C-62.03325364 39.91045024 -55.61517492 39.9202751 -49.19708252 39.93133545 C-42.64831854 39.9415633 -36.09955091 39.94613204 -29.55078125 39.95117188 C-16.7005093 39.96189791 -3.85026007 39.97948957 9 40 C8.67 27.79 8.34 15.58 8 3 C5.36 2.67 2.72 2.34 0 2 C0 1.34 0 0.68 0 0 Z " fill="#272727" transform="translate(173,75)"/>
<path d="M0 0 C0.73250977 0.00088623 1.46501953 0.00177246 2.21972656 0.00268555 C11.17431365 0.19451391 19.24567061 2.55597909 26.8125 7.375 C26.4825 8.365 26.1525 9.355 25.8125 10.375 C8.9825 10.375 -7.8475 10.375 -25.1875 10.375 C-25.1875 9.055 -25.1875 7.735 -25.1875 6.375 C-23.85833439 5.74118492 -22.52385391 5.11851516 -21.1875 4.5 C-20.445 4.15195312 -19.7025 3.80390625 -18.9375 3.4453125 C-12.63605671 0.99276213 -6.71161983 -0.0148349 0 0 Z " fill="#090909" transform="translate(126.1875,59.625)"/>
<path d="M0 0 C1.23556641 0.01740234 1.23556641 0.01740234 2.49609375 0.03515625 C3.32238281 0.04417969 4.14867188 0.05320312 5 0.0625 C5.63808594 0.07410156 6.27617188 0.08570312 6.93359375 0.09765625 C6.93359375 0.75765625 6.93359375 1.41765625 6.93359375 2.09765625 C3.96359375 1.60265625 3.96359375 1.60265625 0.93359375 1.09765625 C1.26359375 5.71765625 1.59359375 10.33765625 1.93359375 15.09765625 C11.50359375 15.09765625 21.07359375 15.09765625 30.93359375 15.09765625 C29.94359375 14.43765625 28.95359375 13.77765625 27.93359375 13.09765625 C26.40208391 11.56614641 26.23685154 10.22046079 25.93359375 8.09765625 C26.55859375 5.91015625 26.55859375 5.91015625 27.93359375 4.09765625 C31.25219615 2.9623449 33.62348801 2.99428767 36.93359375 4.09765625 C36.93359375 4.75765625 36.93359375 5.41765625 36.93359375 6.09765625 C37.59359375 6.09765625 38.25359375 6.09765625 38.93359375 6.09765625 C37.07645089 13.66908482 37.07645089 13.66908482 33.93359375 16.09765625 C35.25359375 16.42765625 36.57359375 16.75765625 37.93359375 17.09765625 C36.94359375 17.59265625 36.94359375 17.59265625 35.93359375 18.09765625 C51.77359375 18.59265625 51.77359375 18.59265625 67.93359375 19.09765625 C67.93359375 19.42765625 67.93359375 19.75765625 67.93359375 20.09765625 C59.5450569 20.19042106 51.1567351 20.26145353 42.76781178 20.30490494 C38.87228565 20.32576172 34.97711098 20.35404355 31.08178711 20.39941406 C27.32109317 20.44294133 23.56073685 20.46680773 19.79981041 20.47716522 C18.36647923 20.48454437 16.9331661 20.49895445 15.49997902 20.52057648 C13.48950921 20.54969582 11.4786982 20.55129087 9.46801758 20.55175781 C8.32440262 20.56064026 7.18078766 20.56952271 6.0025177 20.57867432 C2.2286736 19.98716823 0.57826458 18.81769496 -2.06640625 16.09765625 C-2.62941372 13.33891964 -2.89939055 11.17006269 -2.94140625 8.41015625 C-2.97492188 7.72115234 -3.0084375 7.03214844 -3.04296875 6.32226562 C-3.11141353 4.58205714 -3.0958131 2.83896194 -3.06640625 1.09765625 C-2.06640625 0.09765625 -2.06640625 0.09765625 0 0 Z M31.93359375 8.09765625 C31.60359375 8.75765625 31.27359375 9.41765625 30.93359375 10.09765625 C31.92359375 10.09765625 32.91359375 10.09765625 33.93359375 10.09765625 C33.93359375 9.43765625 33.93359375 8.77765625 33.93359375 8.09765625 C33.27359375 8.09765625 32.61359375 8.09765625 31.93359375 8.09765625 Z " fill="#3A3A3A" transform="translate(83.06640625,75.90234375)"/>
<path d="M0 0 C0.85098267 -0.00945648 1.70196533 -0.01891296 2.57873535 -0.02865601 C3.49441284 -0.02258331 4.41009033 -0.01651062 5.35351562 -0.01025391 C6.29658569 -0.01312408 7.23965576 -0.01599426 8.21130371 -0.01895142 C10.20516561 -0.02099287 12.1990475 -0.01545734 14.19287109 -0.00292969 C17.24817607 0.0131227 20.30215814 -0.00277574 23.35742188 -0.02197266 C25.29362272 -0.01999024 27.22982273 -0.0161466 29.16601562 -0.01025391 C30.53953186 -0.01936295 30.53953186 -0.01936295 31.9407959 -0.02865601 C32.79177856 -0.01919952 33.64276123 -0.00974304 34.51953125 0 C35.64180115 0.00358017 35.64180115 0.00358017 36.78674316 0.00723267 C39.26477145 0.48569006 40.16653681 1.48436413 41.75976562 3.38818359 C40.75976562 4.38818359 40.75976562 4.38818359 37.99389648 4.50341797 C36.15903687 4.4927832 36.15903687 4.4927832 34.28710938 4.48193359 C33.62073959 4.47834839 32.95436981 4.47476318 32.26780701 4.47106934 C24.28265145 4.40859085 16.30282734 4.15128874 8.32226562 3.88818359 C6.80078812 3.83978992 5.27930375 3.79161186 3.7578125 3.74365234 C0.0917147 3.62763482 -3.5742829 3.50874668 -7.24023438 3.38818359 C-4.92486848 0.62145066 -3.58825935 0.01144696 0 0 Z " fill="#454545" transform="translate(125.240234375,91.61181640625)"/>
<path d="M0 0 C1.39864621 -0.00067456 2.7972923 -0.00164585 4.19593811 -0.00289917 C7.10988494 -0.00436559 10.02380092 -0.00225345 12.93774414 0.00244141 C16.67934808 0.00817535 20.42088085 0.00483007 24.16248226 -0.00113106 C27.04226729 -0.00473367 29.92203523 -0.00360012 32.80182076 -0.00100327 C34.18258231 -0.00033508 35.56334539 -0.00115866 36.94410515 -0.00348282 C38.86369677 -0.00600837 40.78329383 -0.00147988 42.70288086 0.00341797 C44.34213783 0.00461136 44.34213783 0.00461136 46.01451111 0.00582886 C48.47265625 0.1328125 48.47265625 0.1328125 49.47265625 1.1328125 C49.51346408 3.13239614 49.51519981 5.13326504 49.47265625 7.1328125 C48.48265625 6.6378125 48.48265625 6.6378125 47.47265625 6.1328125 C47.47265625 4.8128125 47.47265625 3.4928125 47.47265625 2.1328125 C24.37265625 2.1328125 1.27265625 2.1328125 -22.52734375 2.1328125 C-22.52734375 1.8028125 -22.52734375 1.4728125 -22.52734375 1.1328125 C-15.0261428 -0.06003541 -7.57987346 -0.01291094 0 0 Z " fill="#141414" transform="translate(114.52734375,194.8671875)"/>
<path d="M0 0 C1.4375 1.8125 1.4375 1.8125 2 4 C1.125 6.75 1.125 6.75 0 9 C-1.32 9 -2.64 9 -4 9 C-4 9.66 -4 10.32 -4 11 C-4.66 11 -5.32 11 -6 11 C-6 10.34 -6 9.68 -6 9 C-6.99 9.33 -7.98 9.66 -9 10 C-9 9.34 -9 8.68 -9 8 C-9.99 7.34 -10.98 6.68 -12 6 C-9.57251908 -0.67557252 -9.57251908 -0.67557252 -7.125 -2.0625 C-4.29248605 -1.97919077 -2.48241649 -1.37186175 0 0 Z " fill="#282828" transform="translate(148,80)"/>
<path d="M0 0 C2.39121209 1.89647856 3.02783805 3.51285091 3.8125 6.4375 C3.4825 7.4275 3.1525 8.4175 2.8125 9.4375 C2.1525 9.4375 1.4925 9.4375 0.8125 9.4375 C0.4825 10.4275 0.1525 11.4175 -0.1875 12.4375 C-1.1775 12.4375 -2.1675 12.4375 -3.1875 12.4375 C-3.1875 11.7775 -3.1875 11.1175 -3.1875 10.4375 C-4.8375 10.4375 -6.4875 10.4375 -8.1875 10.4375 C-9.1875 8.4375 -9.1875 8.4375 -9.1875 5.4375 C-8.21689391 2.52568172 -7.501387 1.61922405 -4.8125 0.0625 C-2.1875 -0.5625 -2.1875 -0.5625 0 0 Z M-4.1875 5.4375 C-3.5275 6.0975 -2.8675 6.7575 -2.1875 7.4375 C-2.1875 6.7775 -2.1875 6.1175 -2.1875 5.4375 C-2.8475 5.4375 -3.5075 5.4375 -4.1875 5.4375 Z " fill="#222222" transform="translate(132.1875,78.5625)"/>
<path d="M0 0 C0.33 0.99 0.66 1.98 1 3 C1.66 3 2.32 3 3 3 C1.14285714 10.57142857 1.14285714 10.57142857 -2 13 C-3.98 12.34 -5.96 11.68 -8 11 C-8 10.34 -8 9.68 -8 9 C-8.66 8.67 -9.32 8.34 -10 8 C-10.21917317 5.29686424 -10.32851983 3.56041618 -8.9375 1.1875 C-6.00731249 -0.60842137 -3.3527047 -0.18977574 0 0 Z M-4 5 C-4.33 5.66 -4.66 6.32 -5 7 C-4.01 7 -3.02 7 -2 7 C-2 6.34 -2 5.68 -2 5 C-2.66 5 -3.32 5 -4 5 Z " fill="#1E1E1E" transform="translate(119,79)"/>
<path d="M0 0 C2.77986914 1.49685261 3.4530107 2.3590321 4.4375 5.3125 C4.4375 6.3025 4.4375 7.2925 4.4375 8.3125 C3.7775 8.3125 3.1175 8.3125 2.4375 8.3125 C2.1075 9.3025 1.7775 10.2925 1.4375 11.3125 C1.1075 10.9825 0.7775 10.6525 0.4375 10.3125 C0.1075 10.9725 -0.2225 11.6325 -0.5625 12.3125 C-2.2125 12.3125 -3.8625 12.3125 -5.5625 12.3125 C-6.32423392 7.9960078 -6.72313604 4.56816547 -5.5625 0.3125 C-2.5625 -0.6875 -2.5625 -0.6875 0 0 Z M-2.5625 5.3125 C-2.5625 5.9725 -2.5625 6.6325 -2.5625 7.3125 C-1.9025 7.3125 -1.2425 7.3125 -0.5625 7.3125 C-0.5625 6.6525 -0.5625 5.9925 -0.5625 5.3125 C-1.2225 5.3125 -1.8825 5.3125 -2.5625 5.3125 Z " fill="#333333" transform="translate(103.5625,78.6875)"/>
<path d="M0 0 C0.99 0.33 1.98 0.66 3 1 C3.27734712 3.05900093 3.52081942 5.12258293 3.75 7.1875 C3.88921875 8.33605469 4.0284375 9.48460938 4.171875 10.66796875 C3.96319878 14.71344183 2.77461108 16.14473162 0 19 C-3 18 -3 18 -5 15 C-3.35 15 -1.7 15 0 15 C0 10.05 0 5.1 0 0 Z " fill="#2B2B2B" transform="translate(169,77)"/>
<path d="M0 0 C1.39120471 0.00015906 2.78241534 0.00585033 4.17358398 0.01586914 C4.90463852 0.01728409 5.63569305 0.01869904 6.38890076 0.02015686 C8.73253406 0.02577131 11.07607313 0.03832617 13.41967773 0.05102539 C15.00496282 0.05603853 16.59024939 0.06060176 18.17553711 0.06469727 C22.06945383 0.07574542 25.96329979 0.09301967 29.85717773 0.11352539 C29.85717773 0.44352539 29.85717773 0.77352539 29.85717773 1.11352539 C16.49217773 1.60852539 16.49217773 1.60852539 2.85717773 2.11352539 C3.18717773 2.77352539 3.51717773 3.43352539 3.85717773 4.11352539 C0.88717773 3.61852539 0.88717773 3.61852539 -2.14282227 3.11352539 C-2.14282227 4.43352539 -2.14282227 5.75352539 -2.14282227 7.11352539 C-3.13282227 6.78352539 -4.12282227 6.45352539 -5.14282227 6.11352539 C-4.07192297 0.14708647 -4.07192297 0.14708647 0 0 Z " fill="#3D3D3D" transform="translate(74.142822265625,73.886474609375)"/>
<path d="M0 0 C0.74056641 0.00451172 1.48113281 0.00902344 2.24414062 0.01367188 C4.05862899 0.02537825 5.87307534 0.04331102 7.6875 0.0625 C3.92136512 3.8387589 -0.03446555 3.6040786 -5.0625 3.75 C-5.85527344 3.78416016 -6.64804688 3.81832031 -7.46484375 3.85351562 C-9.41357504 3.93569104 -11.36301362 4.00078045 -13.3125 4.0625 C-13.3125 3.0725 -13.3125 2.0825 -13.3125 1.0625 C-8.8746439 -0.04915232 -4.54293614 -0.05277763 0 0 Z " fill="#454545" transform="translate(99.3125,91.9375)"/>
<path d="M0 0 C1.134375 0.020625 2.26875 0.04125 3.4375 0.0625 C3.4375 1.3825 3.4375 2.7025 3.4375 4.0625 C2.509375 4.330625 1.58125 4.59875 0.625 4.875 C-2.32490366 5.97398371 -3.61865186 6.68668561 -5.5625 9.0625 C-6.47120687 6.51812075 -6.70995938 5.43114845 -5.6875 2.875 C-3.94598624 0.06922783 -3.94598624 0.06922783 0 0 Z " fill="#252525" transform="translate(115.5625,78.9375)"/>
<path d="M0 0 C0.33 0 0.66 0 1 0 C1 1.65 1 3.3 1 5 C1.66 5 2.32 5 3 5 C3.33 9.62 3.66 14.24 4 19 C2.68 19 1.36 19 0 19 C0 12.73 0 6.46 0 0 Z " fill="#323232" transform="translate(69,97)"/>
<path d="M0 0 C0.33 0 0.66 0 1 0 C1.06058594 0.63808594 1.12117187 1.27617188 1.18359375 1.93359375 C1.26738281 2.75988281 1.35117188 3.58617188 1.4375 4.4375 C1.51871094 5.26121094 1.59992188 6.08492188 1.68359375 6.93359375 C1.78930815 8.98662025 1.78930815 8.98662025 3 10 C3.07258946 12.18639453 3.08373783 14.37500389 3.0625 16.5625 C3.05347656 17.76003906 3.04445312 18.95757812 3.03515625 20.19140625 C3.02355469 21.11824219 3.01195312 22.04507813 3 23 C0.95529751 21.33263592 0.07433079 20.47502434 -0.34057617 17.82348633 C-0.32486572 17.00130615 -0.30915527 16.17912598 -0.29296875 15.33203125 C-0.28330078 14.43935547 -0.27363281 13.54667969 -0.26367188 12.62695312 C-0.23853516 11.69818359 -0.21339844 10.76941406 -0.1875 9.8125 C-0.17396484 8.87212891 -0.16042969 7.93175781 -0.14648438 6.96289062 C-0.11113096 4.64134962 -0.06178674 2.32096347 0 0 Z " fill="#3A3A3A" transform="translate(182,96)"/>
<path d="M0 0 C2.125 0.9375 2.125 0.9375 4 2 C3.67 3.65 3.34 5.3 3 7 C1.125 7.625 1.125 7.625 -1 8 C-1.66 7.34 -2.32 6.68 -3 6 C-2.75 3.4375 -2.75 3.4375 -2 1 C-1.34 0.67 -0.68 0.34 0 0 Z " fill="#0E0E0E" transform="translate(155,81)"/>
<path d="M0 0 C1.65 0.33 3.3 0.66 5 1 C5.33 1.99 5.66 2.98 6 4 C5.01 5.485 5.01 5.485 4 7 C2.35 6.67 0.7 6.34 -1 6 C-1.33 5.01 -1.66 4.02 -2 3 C-1.34 2.01 -0.68 1.02 0 0 Z " fill="#282828" transform="translate(87,82)"/>
<path d="M0 0 C0.99 0.33 1.98 0.66 3 1 C3.625 3.375 3.625 3.375 4 6 C3.34 6.66 2.68 7.32 2 8 C-0.125 7.625 -0.125 7.625 -2 7 C-2.6875 5.1875 -2.6875 5.1875 -3 3 C-1.5625 1.25 -1.5625 1.25 0 0 Z " fill="#101010" transform="translate(164,81)"/>
<path d="M0 0 C1.17175781 0.12761719 2.34351562 0.25523438 3.55078125 0.38671875 C4.73027344 0.50660156 5.90976563 0.62648438 7.125 0.75 C8.48044922 0.91048828 8.48044922 0.91048828 9.86328125 1.07421875 C9.86328125 1.73421875 9.86328125 2.39421875 9.86328125 3.07421875 C4.58328125 3.07421875 -0.69671875 3.07421875 -6.13671875 3.07421875 C-3.13671875 0.07421875 -3.13671875 0.07421875 0 0 Z " fill="#4A4A4A" transform="translate(124.13671875,91.92578125)"/>
<path d="M0 0 C1.32 0.66 2.64 1.32 4 2 C4 2.66 4 3.32 4 4 C3.34 4 2.68 4 2 4 C1.67 4.99 1.34 5.98 1 7 C0.67 6.67 0.34 6.34 0 6 C-0.33 6.66 -0.66 7.32 -1 8 C-2.65 8 -4.3 8 -6 8 C-5.67 6.35 -5.34 4.7 -5 3 C-3.35 3 -1.7 3 0 3 C0 2.01 0 1.02 0 0 Z " fill="#191919" transform="translate(104,83)"/>
<path d="M0 0 C1.23556641 0.01740234 1.23556641 0.01740234 2.49609375 0.03515625 C3.32238281 0.04417969 4.14867188 0.05320312 5 0.0625 C5.63808594 0.07410156 6.27617188 0.08570312 6.93359375 0.09765625 C6.93359375 0.75765625 6.93359375 1.41765625 6.93359375 2.09765625 C3.96359375 1.60265625 3.96359375 1.60265625 0.93359375 1.09765625 C0.80984375 2.06703125 0.68609375 3.03640625 0.55859375 4.03515625 C0.35234375 5.04578125 0.14609375 6.05640625 -0.06640625 7.09765625 C-1.05640625 7.59265625 -1.05640625 7.59265625 -2.06640625 8.09765625 C-2.44703846 5.77157055 -2.7791057 3.43710361 -3.06640625 1.09765625 C-2.06640625 0.09765625 -2.06640625 0.09765625 0 0 Z " fill="#3E3E3E" transform="translate(83.06640625,75.90234375)"/>
<path d="M0 0 C0 0.99 0 1.98 0 3 C-2.97 2.67 -5.94 2.34 -9 2 C-8.67 1.01 -8.34 0.02 -8 -1 C-4.71293093 -2.47351372 -2.99288606 -1.8171094 0 0 Z " fill="#313131" transform="translate(134,80)"/>
<path d="M0 0 C2 2 2 2 4 5 C3.67 5.66 3.34 6.32 3 7 C2.34 7 1.68 7 1 7 C0.67 8.32 0.34 9.64 0 11 C-1.04028969 7.61905851 -1.15672777 4.52637472 -1 1 C-0.67 0.67 -0.34 0.34 0 0 Z " fill="#292929" transform="translate(98,79)"/>
<path d="M0 0 C4.75 0.875 4.75 0.875 7 2 C6.67 2.99 6.34 3.98 6 5 C4.35 4.67 2.7 4.34 1 4 C0.67 2.68 0.34 1.36 0 0 Z " fill="#090909" transform="translate(142,84)"/>
<path d="M0 0 C0.804375 0.4640625 0.804375 0.4640625 1.625 0.9375 C4.3984957 2.17827439 7.00042837 2.5909675 10 3 C10 3.33 10 3.66 10 4 C8.35 4 6.7 4 5 4 C5 4.66 5 5.32 5 6 C3.0625 5.25 3.0625 5.25 1 4 C0.25 1.875 0.25 1.875 0 0 Z " fill="#313131" transform="translate(81,89)"/>
<path d="M0 0 C3.3 0 6.6 0 10 0 C9.67 0.66 9.34 1.32 9 2 C5.65506316 2.99444068 3.31044803 3.10348268 0 2 C0 1.34 0 0.68 0 0 Z " fill="#464646" transform="translate(173,75)"/>
<path d="M0 0 C1.65 0.33 3.3 0.66 5 1 C5.33 2.32 5.66 3.64 6 5 C3.69 4.67 1.38 4.34 -1 4 C-0.67 2.68 -0.34 1.36 0 0 Z " fill="#0A0A0A" transform="translate(155,65)"/>
<path d="M0 0 C1.66611905 -0.042721 3.33382885 -0.04063832 5 0 C6 1 6 1 6.0625 4.0625 C6.041875 5.031875 6.02125 6.00125 6 7 C5.34 6.67 4.68 6.34 4 6 C4 4.68 4 3.36 4 2 C2.68 1.67 1.36 1.34 0 1 C0 0.67 0 0.34 0 0 Z " fill="#0E0E0E" transform="translate(158,195)"/>
<path d="M0 0 C0.66 0.33 1.32 0.66 2 1 C1.67 2.65 1.34 4.3 1 6 C0.01 6.33 -0.98 6.66 -2 7 C-2 5.35 -2 3.7 -2 2 C-1.34 2 -0.68 2 0 2 C0 1.34 0 0.68 0 0 Z " fill="#1B1B1B" transform="translate(157,82)"/>
<path d="M0 0 C1.65 0 3.3 0 5 0 C5 1.32 5 2.64 5 4 C3.35 3.67 1.7 3.34 0 3 C0 2.01 0 1.02 0 0 Z " fill="#2E2E2E" transform="translate(114,79)"/>
<path d="M0 0 C-0.33 0.99 -0.66 1.98 -1 3 C-1.99 3 -2.98 3 -4 3 C-4 2.34 -4 1.68 -4 1 C-4.99 0.67 -5.98 0.34 -7 0 C-4.3333581 -1.33332095 -2.83319697 -0.67102033 0 0 Z " fill="#060606" transform="translate(133,88)"/>
<path d="M0 0 C1.32 0.33 2.64 0.66 4 1 C3.34 2.32 2.68 3.64 2 5 C-0.475 4.01 -0.475 4.01 -3 3 C-2.01 2.67 -1.02 2.34 0 2 C0 1.34 0 0.68 0 0 Z " fill="#090909" transform="translate(114,87)"/>
<path d="M0 0 C0.99 0 1.98 0 3 0 C2.67 1.32 2.34 2.64 2 4 C1.01 4 0.02 4 -1 4 C-0.67 2.68 -0.34 1.36 0 0 Z " fill="#060606" transform="translate(96,65)"/>
</svg>
