<?xml version="1.0" encoding="UTF-8"?>
<svg version="1.1" xmlns="http://www.w3.org/2000/svg" width="250" height="262">
<path d="M0 0 C0.81726563 0.67546875 1.63453125 1.3509375 2.4765625 2.046875 C20.38920273 17.24211779 31.97998062 38.74697765 35 62 C35.28601328 66.44171813 35.33450334 70.86248242 35.3125 75.3125 C35.30686035 76.50657471 35.3012207 77.70064941 35.29541016 78.9309082 C35.17916256 87.36231176 34.62502769 94.93670741 32 103 C31.70198486 103.94311035 31.70198486 103.94311035 31.39794922 104.90527344 C26.71157963 119.45934708 19.14256081 131.54466093 9 143 C8.06414062 144.06154297 8.06414062 144.06154297 7.109375 145.14453125 C-9.98580223 163.35304986 -34.66384672 172.46831141 -59.1015625 174.22265625 C-87.19989117 175.04070886 -111.63324091 164.57286567 -131.86669922 145.51611328 C-150.23091465 127.74412132 -160.61259808 103.65445023 -161.28564453 78.13085938 C-161.57872225 51.46611542 -152.62049654 27.32541181 -134.08618164 8.07739258 C-132.40415044 6.37078957 -130.70746013 4.68111707 -129 3 C-128.2678125 2.26910156 -127.535625 1.53820312 -126.78125 0.78515625 C-92.65098664 -31.10350083 -34.49293359 -30.84351058 0 0 Z M-126.82910156 8.59936523 C-129.13797146 13.33312623 -131.06643454 18.19766504 -132.98095703 23.09985352 C-133.75064219 25.0641389 -134.53681036 27.02127838 -135.32421875 28.97851562 C-135.81611703 30.22616364 -136.30703688 31.47419795 -136.796875 32.72265625 C-137.24385742 33.85453369 -137.69083984 34.98641113 -138.15136719 36.15258789 C-139.30713068 39.0353055 -139.30713068 39.0353055 -138 42 C-136.24756751 43.05335262 -136.24756751 43.05335262 -134.03222656 43.81835938 C-133.18385223 44.14340958 -132.33547791 44.46845978 -131.46139526 44.80335999 C-130.53054108 45.14668869 -129.59968689 45.4900174 -128.640625 45.84375 C-127.67730255 46.20927475 -126.7139801 46.5747995 -125.72146606 46.95140076 C-122.56824663 48.14500612 -119.40926529 49.32250103 -116.25 50.5 C-114.07853589 51.31867494 -111.90747542 52.13842129 -109.73681641 52.95922852 C-105.44101392 54.58180122 -101.14304323 56.19838666 -96.84277344 57.80908203 C-92.03875844 59.6087755 -87.23955726 61.42054693 -82.4453125 63.24609375 C-77.82331837 65.00585091 -73.20005123 66.76207412 -68.57421875 68.51171875 C-64.11696514 70.19783563 -59.66131858 71.88809366 -55.20703125 73.58203125 C-35.18181783 81.19500337 -15.13407435 88.74990788 4.94302368 96.22509766 C6.36637714 96.76130214 7.78557969 97.30860776 9.20126343 97.86474609 C13.47285403 99.52993193 13.47285403 99.52993193 18 100 C19.58498004 96.3088666 21.15067664 92.61017753 22.69970703 88.90380859 C23.22812336 87.64676449 23.76156131 86.39181809 24.30029297 85.13916016 C28.72724865 75.40266119 28.72724865 75.40266119 29 65 C26.19756751 60.6846354 23.67207003 59.07395662 18.88183594 57.33129883 C18.27464659 57.10552941 17.66745724 56.87976 17.04186821 56.64714909 C15.02777998 55.90237032 13.00643715 55.17985025 10.984375 54.45703125 C9.55062558 53.9315801 8.11739801 53.40470313 6.68466187 52.87649536 C3.63314743 51.75472559 0.57837066 50.64257043 -2.47943115 49.53805542 C-7.27062867 47.80737693 -12.05413813 46.05614956 -16.83642578 44.30102539 C-22.44542048 42.24376803 -28.05594945 40.19082829 -33.66879463 38.14409924 C-46.434167 33.48795696 -59.15894679 28.72665428 -71.875 23.9375 C-73.70727449 23.24888585 -75.53962854 22.56048334 -77.37207031 21.87231445 C-78.2464978 21.54367905 -79.12092529 21.21504364 -80.02185059 20.87644958 C-81.72840414 20.23593013 -83.4355024 19.59685975 -85.14318848 18.95936584 C-89.8982053 17.1812709 -94.63494016 15.36378098 -99.36035156 13.50830078 C-100.43592316 13.09141495 -101.51149475 12.67452911 -102.61965942 12.24501038 C-104.69703586 11.43947463 -106.77047397 10.62367933 -108.83908081 9.79588318 C-118.02835491 5.9333671 -118.02835491 5.9333671 -126.82910156 8.59936523 Z M-142 47 C-143.519178 50.84687834 -145.01182828 54.70353218 -146.5 58.5625 C-146.92925781 59.64853516 -147.35851562 60.73457031 -147.80078125 61.85351562 C-151.02864204 69.72602403 -151.02864204 69.72602403 -151 78 C-147.8719946 80.18423299 -144.63842117 81.65346253 -141.08178711 82.99853516 C-140.12132477 83.36453827 -139.16086243 83.73054138 -138.17129517 84.1076355 C-136.61503922 84.69244186 -136.61503922 84.69244186 -135.02734375 85.2890625 C-133.9334433 85.70463409 -132.83954285 86.12020569 -131.7124939 86.54837036 C-129.35408667 87.4437809 -126.99486408 88.33704616 -124.63491821 89.22839355 C-120.8964974 90.6404877 -117.16011501 92.0578857 -113.42456055 93.47753906 C-112.7989174 93.71529053 -112.17327425 93.95304199 -111.52867222 94.19799805 C-110.26132996 94.67961229 -108.99399503 95.16124581 -107.7266674 95.64289856 C-105.81441073 96.36942978 -103.90192882 97.0953653 -101.98939514 97.82116699 C-91.63169092 101.7529102 -81.29042025 105.72606358 -70.95880127 109.72579956 C-68.31858542 110.74764475 -65.67768051 111.76769083 -63.03662109 112.78735352 C-54.61637233 116.04020825 -46.20256711 119.30862902 -37.79951477 122.60568237 C-33.70872317 124.20968349 -29.61552157 125.80747933 -25.52206421 127.40466309 C-23.56659256 128.1696802 -21.61232117 128.93777324 -19.65933228 129.70910645 C-16.96458623 130.77328074 -14.26601639 131.82714483 -11.56640625 132.87890625 C-10.37123383 133.3556353 -10.37123383 133.3556353 -9.1519165 133.84199524 C-3.74436371 135.97848334 -3.74436371 135.97848334 2 136 C6.42001544 131.01353598 8.4339997 124.45217147 10.8125 118.3125 C11.44188477 116.74532227 11.44188477 116.74532227 12.08398438 115.14648438 C12.67083008 113.64504883 12.67083008 113.64504883 13.26953125 112.11328125 C13.62635986 111.20360596 13.98318848 110.29393066 14.35083008 109.35668945 C15.26880087 106.87838251 15.26880087 106.87838251 14 104 C10.67908998 102.29466783 8.81507216 102 5 102 C3.82807565 105.12305373 2.66336124 108.24874739 1.5 111.375 C0.99919922 112.70917969 0.99919922 112.70917969 0.48828125 114.0703125 C0.17246094 114.92109375 -0.14335937 115.771875 -0.46875 116.6484375 C-0.76201172 117.43395996 -1.05527344 118.21948242 -1.35742188 119.02880859 C-2.10331089 120.97137234 -2.10331089 120.97137234 -2 123 C-4.58653115 122.07065334 -7.16898256 121.13193804 -9.75 120.1875 C-10.84441406 119.79594727 -10.84441406 119.79594727 -11.9609375 119.39648438 C-13.02441406 119.00493164 -13.02441406 119.00493164 -14.109375 118.60546875 C-14.75874023 118.36981201 -15.40810547 118.13415527 -16.07714844 117.89135742 C-18.30358918 116.85926815 -20.08529344 115.52543256 -22 114 C-21.78794922 113.43490723 -21.57589844 112.86981445 -21.35742188 112.28759766 C-20.40157509 109.73464642 -19.45073113 107.17986049 -18.5 104.625 C-17.99919922 103.29082031 -17.99919922 103.29082031 -17.48828125 101.9296875 C-17.01455078 100.65351563 -17.01455078 100.65351563 -16.53125 99.3515625 C-16.23798828 98.56604004 -15.94472656 97.78051758 -15.64257812 96.97119141 C-14.89668911 95.02862766 -14.89668911 95.02862766 -15 93 C-16.32 92.67 -17.64 92.34 -19 92 C-22.03803175 98.54469606 -24.6083491 105.19397217 -27 112 C-31.46635712 111.34638676 -35.67060054 110.26638795 -40 109 C-39.823479 108.47567383 -39.64695801 107.95134766 -39.46508789 107.41113281 C-38.66263481 105.02461992 -37.86254547 102.63732103 -37.0625 100.25 C-36.78470703 99.425 -36.50691406 98.6 -36.22070312 97.75 C-35.95322266 96.95078125 -35.68574219 96.1515625 -35.41015625 95.328125 C-35.16402588 94.5949707 -34.91789551 93.86181641 -34.66430664 93.10644531 C-34.02977133 91.0944017 -33.51168433 89.04673733 -33 87 C-36.96 85.35 -40.92 83.7 -45 82 C-45.7425 83.794375 -46.485 85.58875 -47.25 87.4375 C-49.42493546 92.66106293 -51.67812082 97.84026849 -54 103 C-59.94 100.69 -65.88 98.38 -72 96 C-69.76884422 85.95979899 -69.76884422 85.95979899 -67.875 81.625 C-66.61672522 78.73188645 -66 77.19363645 -66 74 C-67.485 73.505 -67.485 73.505 -69 73 C-72.13886728 79.94408627 -75.08629827 86.95855414 -78 94 C-81.96 92.35 -85.92 90.7 -90 89 C-87.69 82.07 -85.38 75.14 -83 68 C-91.66918341 63.81430466 -91.66918341 63.81430466 -96 64 C-98.31 70.27 -100.62 76.54 -103 83 C-107.83358504 82.19440249 -111.40024228 81.21827093 -115.875 79.4375 C-117.02742188 78.98246094 -118.17984375 78.52742188 -119.3671875 78.05859375 C-120.23601562 77.70925781 -121.10484375 77.35992187 -122 77 C-120.55613874 69.78069368 -118.42211826 62.94889267 -116 56 C-117.32 55.34 -118.64 54.68 -120 54 C-123.03803175 60.54469606 -125.6083491 67.19397217 -128 74 C-132.3972938 73.21775257 -135.94559445 71.82845741 -140 70 C-139.34065816 65.13451192 -138.03428754 60.74092364 -136.4375 56.125 C-136.20353516 55.43664062 -135.96957031 54.74828125 -135.72851562 54.0390625 C-135.15647501 52.35796355 -134.57881544 50.67877837 -134 49 C-137.08809695 47.23537317 -138.23312136 47 -142 47 Z " fill="#020202" transform="translate(188,55)"/>
<path d="M0 0 C25.07504584 22.47605684 42.00307626 50.42650087 43.89257812 84.88061523 C45.03158309 120.46010259 34.33764604 150.91999902 10.06396484 177.21435547 C-8.99844623 197.24671269 -34.71600567 210.49086447 -62.23339844 213.58349609 C-63.41804687 213.71755859 -64.60269531 213.85162109 -65.82324219 213.98974609 C-95.23838362 216.57569259 -126.84841442 208.94354966 -150.03125 190.12402344 C-153.41197326 187.2163739 -156.62461574 184.15585068 -159.78564453 181.01220703 C-161.13565804 179.67995087 -162.52124571 178.38401206 -163.90917969 177.09130859 C-185.93968316 156.19145305 -197.50216918 125.82734778 -198.70825195 95.7487793 C-199.11593867 60.64418244 -184.29382987 30.26174174 -160.23339844 5.58349609 C-118.05107639 -36.7364518 -45.04210533 -39.26714665 0 0 Z M-162.23339844 22.58349609 C-165.16686526 26.10365628 -167.75750031 29.72975273 -170.23339844 33.58349609 C-170.91015625 34.62763672 -171.58691406 35.67177734 -172.28417969 36.74755859 C-187.49905035 61.67587776 -190.96975894 92.63360428 -184.26855469 120.88037109 C-179.63527518 138.64634956 -170.82718167 153.84772548 -158.34667969 167.25927734 C-156.23339844 169.58349609 -156.23339844 169.58349609 -154.35449219 172.04833984 C-138.16128505 191.40265187 -110.64126328 201.2907808 -86.23339844 203.58349609 C-59.14526029 205.57292001 -30.40586438 198.53940917 -9.49511719 180.61083984 C-8.74875 179.94181641 -8.00238281 179.27279297 -7.23339844 178.58349609 C-5.97462891 177.50261719 -5.97462891 177.50261719 -4.69042969 176.39990234 C15.78425246 158.52714652 30.4453859 134.07775088 32.76660156 106.58349609 C34.03368011 77.45533778 29.88994131 51.37504086 11.76660156 27.58349609 C11.09886719 26.69919922 10.43113281 25.81490234 9.74316406 24.90380859 C-8.25414712 1.96860698 -33.8435057 -13.15313241 -62.92089844 -16.66650391 C-101.99183688 -20.82041162 -135.99943257 -6.31163203 -162.23339844 22.58349609 Z " fill="#070707" transform="translate(202.2333984375,37.41650390625)"/>
<path d="M0 0 C7.0874439 0.93255841 13.76024614 2.95388018 20.25390625 5.90625 C24.79490826 7.95582851 29.40639042 9.59983574 34.125 11.1875 C42.03947328 13.90964169 49.88117743 16.79406341 57.6875 19.8125 C58.6976416 20.19752686 59.7077832 20.58255371 60.74853516 20.97924805 C61.68101074 21.3431665 62.61348633 21.70708496 63.57421875 22.08203125 C64.40526123 22.40405518 65.23630371 22.7260791 66.0925293 23.05786133 C68 24 68 24 69 26 C68.328125 28.20703125 68.328125 28.20703125 67.25 30.8125 C66.90453125 31.66457031 66.5590625 32.51664063 66.203125 33.39453125 C64.97265666 36.05921432 63.55415869 38.5124529 62 41 C54.9003021 38.53580898 47.89724534 36.04339104 41.06640625 32.8984375 C38.22168889 31.66160386 35.30962767 30.72073341 32.359375 29.76953125 C24.58932608 27.23526033 17.0122543 24.21929661 9.44067383 21.15454102 C4.67834514 19.23939708 -0.10663659 17.54527266 -5 16 C-4.49228528 10.03435204 -2.61407872 5.36190101 0 0 Z " fill="#2D2D2D" transform="translate(113,85)"/>
<path d="M0 0 C3.90407427 0.67152397 7.43708021 1.79826621 11.14794922 3.17724609 C12.36626434 3.62796478 13.58457947 4.07868347 14.83981323 4.5430603 C16.16148691 5.03638831 17.48311044 5.52985071 18.8046875 6.0234375 C20.17072416 6.53076467 21.53686561 7.03780978 22.90310669 7.54458618 C25.76358408 8.60650754 28.62311371 9.67092935 31.48193359 10.73730469 C35.13080779 12.09829924 38.78144937 13.45447268 42.43275261 14.80893517 C45.25413274 15.85587519 48.0748142 16.90468652 50.89526749 17.95412064 C52.24021449 18.45444926 53.58531242 18.9543724 54.9305687 19.45386887 C67.83110503 24.24715792 67.83110503 24.24715792 74 27 C73.49287967 30.71888239 72.88391785 33.73454239 71 37 C66.86063946 36.40991697 63.1634658 35.47283644 59.24511719 34.0222168 C58.13666443 33.6147673 57.02821167 33.20731781 55.88616943 32.78752136 C54.70170227 32.3458815 53.51723511 31.90424164 52.296875 31.44921875 C51.06390686 30.99400345 49.83093872 30.53878815 48.56060791 30.06977844 C45.95375094 29.10711011 43.34819895 28.14102058 40.74365234 27.17211914 C37.43280076 25.94048519 34.11987469 24.71456277 30.80607224 23.49089336 C27.6148004 22.312239 24.42456295 21.130804 21.234375 19.94921875 C19.46981964 19.295868 19.46981964 19.295868 17.6696167 18.62931824 C15.46408975 17.80911574 13.26117004 16.98185502 11.06140137 16.14633179 C9.04907031 15.39282097 7.02521371 14.66928235 4.99035645 13.97891235 C4.08120483 13.65691864 3.17205322 13.33492493 2.23535156 13.00317383 C1.43824768 12.73459061 0.6411438 12.46600739 -0.18011475 12.18928528 C-2 11 -2 11 -2.85455322 8.58183289 C-3.05253574 5.06743552 -1.7404655 2.99360065 0 0 Z " fill="#030303" transform="translate(103,102)"/>
<path d="M0 0 C3.68545552 0.57068559 7.23699958 1.25111596 10.8125 2.3125 C11.58207031 2.53550781 12.35164063 2.75851563 13.14453125 2.98828125 C15.57302009 3.8487171 17.84603257 4.81303169 20.1875 5.87890625 C25.09248655 8.09345398 30.0984794 9.88371513 35.1875 11.625 C36.05052734 11.9240625 36.91355469 12.223125 37.80273438 12.53125 C42.19244995 14.04934597 46.58990509 15.54199808 51 17 C50.34 19.31 49.68 21.62 49 24 C46.69 23.67 44.38 23.34 42 23 C42 21.68 42 20.36 42 19 C41.34 19 40.68 19 40 19 C40 19.66 40 20.32 40 21 C35.16830444 20.40836381 30.59971901 19.62343024 26 18 C25.34 17.01 24.68 16.02 24 15 C21.01349195 14.3355782 21.01349195 14.3355782 18 14 C17.34 13.67 16.68 13.34 16 13 C16.33 11.68 16.66 10.36 17 9 C16.01 9 15.02 9 14 9 C14 9.99 14 10.98 14 12 C10.7 11.67 7.4 11.34 4 11 C4.33 12.32 4.66 13.64 5 15 C5.33 14.01 5.66 13.02 6 12 C8.31 12.66 10.62 13.32 13 14 C12.67 16.31 12.34 18.62 12 21 C8.15799366 20.49447285 4.43044102 19.67559347 0.6875 18.6875 C-0.60607422 18.35298828 -0.60607422 18.35298828 -1.92578125 18.01171875 C-4 17 -4 17 -4.9453125 15.31640625 C-5.0256179 11.91489907 -3.84657667 9.38189431 -2.5625 6.25 C-2.08941406 5.07953125 -1.61632812 3.9090625 -1.12890625 2.703125 C-0.75636719 1.81109375 -0.38382812 0.9190625 0 0 Z " fill="#161616" transform="translate(113,85)"/>
<path d="M0 0 C2.31581759 0.78289575 4.62732941 1.57575731 6.9375 2.375 C7.59685547 2.59671875 8.25621094 2.8184375 8.93554688 3.046875 C13.88671875 4.7734375 13.88671875 4.7734375 15 7 C14.328125 9.20703125 14.328125 9.20703125 13.25 11.8125 C12.90453125 12.66457031 12.5590625 13.51664063 12.203125 14.39453125 C10.97265666 17.05921432 9.55415869 19.5124529 8 22 C0.18393833 19.28717063 -7.49290416 16.49468255 -15 13 C-15 9.89448334 -14.4606285 8.64738916 -13 6 C-11.02 6.66 -9.04 7.32 -7 8 C-7.33 9.98 -7.66 11.96 -8 14 C-7.54625 13.54625 -7.0925 13.0925 -6.625 12.625 C-5.41666667 11.41666667 -4.20833333 10.20833333 -3 9 C1.95 10.98 1.95 10.98 7 13 C7.33 12.67 7.66 12.34 8 12 C7.37351563 11.82984375 6.74703125 11.6596875 6.1015625 11.484375 C5.28429687 11.24203125 4.46703125 10.9996875 3.625 10.75 C2.40683594 10.40195313 2.40683594 10.40195313 1.1640625 10.046875 C-1 9 -1 9 -2.4765625 7.203125 C-3 5 -3 5 -1.625 2.25 C-1.08875 1.5075 -0.5525 0.765 0 0 Z " fill="#050505" transform="translate(167,104)"/>
<path d="M0 0 C2.96175123 0.61277612 4.38058783 1.25372522 7 3 C6.67 4.98 6.34 6.96 6 9 C4.68 9.33 3.36 9.66 2 10 C2.99 10.99 3.98 11.98 5 13 C5.33 12.67 5.66 12.34 6 12 C8.31 12.66 10.62 13.32 13 14 C12.67 16.31 12.34 18.62 12 21 C8.15799366 20.49447285 4.43044102 19.67559347 0.6875 18.6875 C-0.60607422 18.35298828 -0.60607422 18.35298828 -1.92578125 18.01171875 C-4 17 -4 17 -4.9453125 15.31640625 C-5.0256179 11.91489907 -3.84657667 9.38189431 -2.5625 6.25 C-2.08941406 5.07953125 -1.61632812 3.9090625 -1.12890625 2.703125 C-0.75636719 1.81109375 -0.38382812 0.9190625 0 0 Z " fill="#080808" transform="translate(113,85)"/>
<path d="M0 0 C7.67496241 1.13766036 15.22504209 3.11940702 22 7 C23.34375 9.1640625 23.34375 9.1640625 24 11 C23.01 12.485 23.01 12.485 22 14 C15.25 13.125 15.25 13.125 13 12 C13.33 10.68 13.66 9.36 14 8 C13.01 8 12.02 8 11 8 C11 8.99 11 9.98 11 11 C3.575 10.01 3.575 10.01 -4 9 C-4 8.67 -4 8.34 -4 8 C-1.69 8 0.62 8 3 8 C3.33 6.02 3.66 4.04 4 2 C2.68 1.67 1.36 1.34 0 1 C0 0.67 0 0.34 0 0 Z " fill="#1A1A1A" transform="translate(116,86)"/>
<path d="M0 0 C1.125 3.75 1.125 3.75 0 6 C2.31 6.33 4.62 6.66 7 7 C7 5.02 7 3.04 7 1 C9.475 1.495 9.475 1.495 12 2 C11.34 4.31 10.68 6.62 10 9 C12.90692674 10.48726484 15.75587149 11.90777367 18.8125 13.0625 C21 14 21 14 22 16 C17.02693484 15.50269348 13.36200187 14.44697666 9 12 C8.54625 12.66 8.0925 13.32 7.625 14 C7.08875 14.66 6.5525 15.32 6 16 C5.34 16 4.68 16 4 16 C4 14.02 4 12.04 4 10 C1.525 9.505 1.525 9.505 -1 9 C-1.66 10.32 -2.32 11.64 -3 13 C-4.0625 11.1875 -4.0625 11.1875 -5 9 C-4.67 8.01 -4.34 7.02 -4 6 C-6.31 6 -8.62 6 -11 6 C-11.33 5.01 -11.66 4.02 -12 3 C-12.66 2.67 -13.32 2.34 -14 2 C-12.35 1.67 -10.7 1.34 -9 1 C-9 1.66 -9 2.32 -9 3 C-6.69 3.33 -4.38 3.66 -2 4 C-2 3.34 -2 2.68 -2 2 C-1.34 2 -0.68 2 0 2 C0 1.34 0 0.68 0 0 Z " fill="#262626" transform="translate(155,102)"/>
<path d="M0 0 C5.75 0.75 5.75 0.75 8 3 C9.98821313 3.39764263 11.98944339 3.73775349 14 4 C14 6.31 14 8.62 14 11 C10.05199722 12.31600093 7.60059694 11.07613159 3.875 9.6875 C3.22917969 9.46126953 2.58335937 9.23503906 1.91796875 9.00195312 C-2.86974496 7.26051009 -2.86974496 7.26051009 -4 5 C-3.34 4.67 -2.68 4.34 -2 4 C-0.86649466 1.98330173 -0.86649466 1.98330173 0 0 Z " fill="#040404" transform="translate(137,104)"/>
<path d="M0 0 C3.5 0.25 3.5 0.25 5.5 2.25 C5.82954432 5.34771665 5.95334601 7.42331023 4.4375 10.1875 C1.28433176 11.91665678 -1.12508255 11.1090699 -4.5 10.25 C-6.5 7.25 -6.5 7.25 -6.25 4.6875 C-5.03772664 0.74761157 -4.12711402 0.29479386 0 0 Z " fill="#050505" transform="translate(78.5,80.75)"/>
<path d="M0 0 C1.98 0.66 3.96 1.32 6 2 C5.67 3.98 5.34 5.96 5 8 C5.45375 7.54625 5.9075 7.0925 6.375 6.625 C7.58333333 5.41666667 8.79166667 4.20833333 10 3 C12.475 3.99 12.475 3.99 15 5 C14.67 7.64 14.34 10.28 14 13 C8.36691325 11.56176509 3.26322777 9.45855991 -2 7 C-2 3.89448334 -1.4606285 2.64738916 0 0 Z " fill="#020202" transform="translate(154,110)"/>
<path d="M0 0 C2.31581759 0.78289575 4.62732941 1.57575731 6.9375 2.375 C7.59685547 2.59671875 8.25621094 2.8184375 8.93554688 3.046875 C13.88671875 4.7734375 13.88671875 4.7734375 15 7 C14.01 7.99 13.02 8.98 12 10 C12 9.01 12 8.02 12 7 C10.35 6.67 8.7 6.34 7 6 C5.515 8.475 5.515 8.475 4 11 C1.0625 9.6875 1.0625 9.6875 -2 8 C-2.33 7.01 -2.66 6.02 -3 5 C-1.5625 2.3125 -1.5625 2.3125 0 0 Z " fill="#151515" transform="translate(167,104)"/>
<path d="M0 0 C1 4 1 4 2 8 C1.01 8.33 0.02 8.66 -1 9 C-2.20882096 11.00016466 -2.20882096 11.00016466 -3 13 C-4.0625 11.1875 -4.0625 11.1875 -5 9 C-4.67 8.01 -4.34 7.02 -4 6 C-6.31 6 -8.62 6 -11 6 C-11.33 5.01 -11.66 4.02 -12 3 C-12.66 2.67 -13.32 2.34 -14 2 C-12.35 1.67 -10.7 1.34 -9 1 C-9 1.66 -9 2.32 -9 3 C-6.69 3.33 -4.38 3.66 -2 4 C-2 3.34 -2 2.68 -2 2 C-1.34 2 -0.68 2 0 2 C0 1.34 0 0.68 0 0 Z " fill="#2C2C2C" transform="translate(155,102)"/>
<path d="M0 0 C1.98 0.66 3.96 1.32 6 2 C6.1875 4.875 6.1875 4.875 6 8 C5.01 8.66 4.02 9.32 3 10 C1.02 9.01 -0.96 8.02 -3 7 C-2.01 4.69 -1.02 2.38 0 0 Z " fill="#050505" transform="translate(128,100)"/>
<path d="M0 0 C2.31 0.66 4.62 1.32 7 2 C6.67 4.31 6.34 6.62 6 9 C3.03 8.505 3.03 8.505 0 8 C-0.79953138 4.71303767 -1.09658936 3.28976808 0 0 Z " fill="#020202" transform="translate(119,97)"/>
<path d="M0 0 C1.98 0.66 3.96 1.32 6 2 C5.34 3.98 4.68 5.96 4 8 C2.35 7.67 0.7 7.34 -1 7 C-2 4 -2 4 -1.0625 1.8125 C-0.5365625 0.9153125 -0.5365625 0.9153125 0 0 Z " fill="#020202" transform="translate(166,105)"/>
<path d="M0 0 C2.31 0.66 4.62 1.32 7 2 C6.34 3.98 5.68 5.96 5 8 C3.02 7.34 1.04 6.68 -1 6 C-0.67 4.02 -0.34 2.04 0 0 Z " fill="#030303" transform="translate(122,89)"/>
<path d="M0 0 C1.98 0.66 3.96 1.32 6 2 C5.34 3.98 4.68 5.96 4 8 C2.02 7.34 0.04 6.68 -2 6 C-1.34 4.02 -0.68 2.04 0 0 Z " fill="#010101" transform="translate(131,92)"/>
<path d="M0 0 C2.97 0.495 2.97 0.495 6 1 C5.34 2.98 4.68 4.96 4 7 C2.02 6.34 0.04 5.68 -2 5 C-1.34 3.35 -0.68 1.7 0 0 Z " fill="#020202" transform="translate(137,104)"/>
<path d="M0 0 C1.98 0.66 3.96 1.32 6 2 C5.67 3.65 5.34 5.3 5 7 C2.69 6.67 0.38 6.34 -2 6 C-1.34 4.02 -0.68 2.04 0 0 Z " fill="#010101" transform="translate(157,102)"/>
<path d="M0 0 C2.97 0.495 2.97 0.495 6 1 C5.67 2.98 5.34 4.96 5 7 C3.35 6.67 1.7 6.34 0 6 C-1.125 2.25 -1.125 2.25 0 0 Z " fill="#010101" transform="translate(148,99)"/>
<path d="M0 0 C1.98 0.66 3.96 1.32 6 2 C5.34 3.65 4.68 5.3 4 7 C1.03 6.505 1.03 6.505 -2 6 C-1.34 4.02 -0.68 2.04 0 0 Z " fill="#020202" transform="translate(140,96)"/>
<path d="M0 0 C1.98 0.66 3.96 1.32 6 2 C5.34 3.98 4.68 5.96 4 8 C2.02 7.34 0.04 6.68 -2 6 C-1.34 4.02 -0.68 2.04 0 0 Z " fill="#010101" transform="translate(111,94)"/>
<path d="M0 0 C0.66 0.33 1.32 0.66 2 1 C2.33 1.99 2.66 2.98 3 4 C1.69254251 5.68704193 0.35827971 7.35360035 -1 9 C-1 9.99 -1 10.98 -1 12 C-1.99 12 -2.98 12 -4 12 C-2.68 8.04 -1.36 4.08 0 0 Z " fill="#0C0C0C" transform="translate(182,161)"/>
<path d="M0 0 C0.99 0.33 1.98 0.66 3 1 C2.67 2.65 2.34 4.3 2 6 C-2.05606165 5.53199289 -5.46588679 5.12046792 -9 3 C-5.71023192 1.90341064 -4.28696233 2.20046862 -1 3 C-0.67 2.01 -0.34 1.02 0 0 Z " fill="#101010" transform="translate(142,107)"/>
<path d="M0 0 C0.66 0.66 1.32 1.32 2 2 C0.02 4.97 0.02 4.97 -2 8 C-2.66 7.67 -3.32 7.34 -4 7 C-1.125 1.125 -1.125 1.125 0 0 Z " fill="#0D0D0D" transform="translate(161,145)"/>
<path d="M0 0 C0.99 0.33 1.98 0.66 3 1 C2.67 2.65 2.34 4.3 2 6 C0.68 5.67 -0.64 5.34 -2 5 C-1.34 3.35 -0.68 1.7 0 0 Z " fill="#202020" transform="translate(137,94)"/>
<path d="M0 0 C1.98 0 3.96 0 6 0 C6 0.66 6 1.32 6 2 C5.34 2 4.68 2 4 2 C3.67 3.65 3.34 5.3 3 7 C2.4465236 4.92446352 2 3.15634036 2 1 C1.34 0.67 0.68 0.34 0 0 Z " fill="#343434" transform="translate(115,95)"/>
</svg>
