<?xml version="1.0" encoding="UTF-8"?>
<svg version="1.1" xmlns="http://www.w3.org/2000/svg" width="250" height="262">
<path d="M0 0 C24.43136855 -0.6493387 46.91987026 7.67103284 65.7265625 23.125 C67.02207031 24.17300781 67.02207031 24.17300781 68.34375 25.2421875 C86.17319286 40.40554545 97.71956828 61.97226651 100.7265625 85.125 C101.01257578 89.56671813 101.06106584 93.98748242 101.0390625 98.4375 C101.03342285 99.63157471 101.0277832 100.82564941 101.02197266 102.0559082 C100.90572506 110.48731176 100.35159019 118.06170741 97.7265625 126.125 C97.42854736 127.06811035 97.42854736 127.06811035 97.12451172 128.03027344 C88.5636823 154.61693918 70.08595908 174.13375981 46.0546875 187.625 C34.94911607 193.14329636 21.14408204 196.82000829 8.7265625 197.125 C7.90929687 197.16367188 7.09203125 197.20234375 6.25 197.2421875 C-21.15483355 197.96974945 -45.74896097 187.97321405 -65.63867188 169.21069336 C-72.8332092 162.2098996 -78.36457742 154.85973454 -83.2734375 146.125 C-83.84707031 145.10535156 -84.42070313 144.08570313 -85.01171875 143.03515625 C-97.152252 120.10973242 -98.30917092 93.45963827 -91.0546875 68.875 C-85.57917156 51.5056872 -76.12752578 38.82156268 -63.2734375 26.125 C-62.479375 25.320625 -61.6853125 24.51625 -60.8671875 23.6875 C-44.74551299 8.28769152 -21.78902015 1.19802173 0 0 Z M49.7265625 32.125 C50.0565625 33.115 50.3865625 34.105 50.7265625 35.125 C51.3865625 35.125 52.0465625 35.125 52.7265625 35.125 C52.3965625 34.135 52.0665625 33.145 51.7265625 32.125 C51.0665625 32.125 50.4065625 32.125 49.7265625 32.125 Z M59.7265625 33.125 C58.16406518 34.92788153 56.69033823 36.74468448 55.2265625 38.625 C50.66366057 44.3222877 45.65689323 48.83497352 39.7265625 53.125 C40.07738892 54.2399585 40.07738892 54.2399585 40.43530273 55.37744141 C40.7265625 58.125 40.7265625 58.125 39.40649414 60.14208984 C38.73996826 60.78355957 38.07344238 61.4250293 37.38671875 62.0859375 C36.65259766 62.80523437 35.91847656 63.52453125 35.16210938 64.265625 C34.37900391 65.00296875 33.59589844 65.7403125 32.7890625 66.5 C32.04076172 67.22960937 31.29246094 67.95921875 30.52148438 68.7109375 C26.30685133 72.79078972 21.98005976 76.71641299 17.52416992 80.53076172 C15.59538101 82.2413405 13.78367426 84.03694368 11.9765625 85.875 C6.91846391 90.95598592 6.91846391 90.95598592 4.7265625 92.125 C1.60872622 91.96090335 -0.32697313 91.09644766 -3.0859375 89.625 C-8.08503508 87.27248349 -12.15473665 86.41876638 -17.4609375 88.1875 C-23.45435487 92.31629863 -27.64430854 98.88938323 -31.2734375 105.125 C-31.2734375 105.785 -31.2734375 106.445 -31.2734375 107.125 C-32.84931641 107.48851562 -32.84931641 107.48851562 -34.45703125 107.859375 C-47.60582419 110.96721455 -60.16044668 114.43274852 -68.2734375 126.125 C-71.45694959 131.77688741 -71.99773961 136.88795296 -70.2734375 143.125 C-65.18673298 157.06991999 -54.307379 168.47594708 -41.15234375 175.2109375 C-35.07322423 177.79426704 -29.41436227 178.02217079 -23.1484375 175.9375 C-15.59642818 172.73674605 -11.0781549 167.23619799 -7.2734375 160.125 C-6.02070705 156.847022 -5.12148506 153.52759575 -4.2734375 150.125 C-1.9236098 140.69820584 0.87881003 136.83891962 9.2890625 131.6875 C13.60262283 128.99007144 16.66244327 126.9412782 18.7265625 122.125 C19.69360289 115.67806406 17.98586481 111.97551993 14.72265625 106.421875 C13.53356559 103.67997183 13.73913679 102.88306179 14.7265625 100.125 C16.7197709 97.94113688 18.71405576 95.90641238 20.8515625 93.875 C22.05004955 92.70895272 23.24668025 91.54099428 24.44140625 90.37109375 C25.01487793 89.81019043 25.58834961 89.24928711 26.17919922 88.67138672 C28.58731363 86.2647921 30.77383228 83.69326049 32.97265625 81.09765625 C35.98255072 77.71236291 39.2502742 74.58324387 42.4921875 71.421875 C44.44455558 69.41489522 46.1139438 67.4077979 47.7265625 65.125 C49.7065625 65.455 51.6865625 65.785 53.7265625 66.125 C54.19964844 65.4959375 54.67273438 64.866875 55.16015625 64.21875 C59.30417398 58.85495317 63.57466219 54.20068185 68.74609375 49.81640625 C70.49659713 48.32140041 72.12526911 46.77680738 73.7265625 45.125 C71.77417397 43.11887601 69.81518428 41.12007567 67.8515625 39.125 C67.29597656 38.55265625 66.74039063 37.9803125 66.16796875 37.390625 C64.72521846 35.93049218 63.2291251 34.52350702 61.7265625 33.125 C61.0665625 33.125 60.4065625 33.125 59.7265625 33.125 Z M44.7265625 37.125 C45.0565625 38.445 45.3865625 39.765 45.7265625 41.125 C46.3865625 41.125 47.0465625 41.125 47.7265625 41.125 C47.0665625 39.805 46.4065625 38.485 45.7265625 37.125 C45.3965625 37.125 45.0665625 37.125 44.7265625 37.125 Z M39.7265625 43.125 C40.0565625 44.115 40.3865625 45.105 40.7265625 46.125 C41.3865625 46.125 42.0465625 46.125 42.7265625 46.125 C42.3965625 45.135 42.0665625 44.145 41.7265625 43.125 C41.0665625 43.125 40.4065625 43.125 39.7265625 43.125 Z M70.7265625 53.125 C71.0565625 54.115 71.3865625 55.105 71.7265625 56.125 C72.3865625 55.795 73.0465625 55.465 73.7265625 55.125 C72.7365625 54.465 71.7465625 53.805 70.7265625 53.125 Z M65.7265625 58.125 C66.0565625 59.445 66.3865625 60.765 66.7265625 62.125 C67.3865625 61.465 68.0465625 60.805 68.7265625 60.125 C67.7365625 59.465 66.7465625 58.805 65.7265625 58.125 Z M60.7265625 64.125 C61.0565625 65.115 61.3865625 66.105 61.7265625 67.125 C62.3865625 66.465 63.0465625 65.805 63.7265625 65.125 C62.7365625 64.795 61.7465625 64.465 60.7265625 64.125 Z " fill="#000000" transform="translate(122.2734375,31.875)"/>
<path d="M0 0 C25.37879366 22.74832168 41.82279212 50.71312042 43.93066406 85.2734375 C44.46775716 97.95554833 43.65520387 110.21576296 40.76660156 122.58349609 C40.61094727 123.25010254 40.45529297 123.91670898 40.29492188 124.60351562 C32.98387177 154.24902117 11.72146545 181.11270485 -14.20996094 196.86474609 C-23.15873234 201.95190297 -32.02072861 206.51215137 -41.92089844 209.45849609 C-42.56043457 209.64943848 -43.1999707 209.84038086 -43.85888672 210.03710938 C-74.99521537 218.64231371 -108.06085976 213.98554601 -136.43261719 199.20458984 C-145.2519855 194.09993454 -152.86149576 187.56860141 -160.23339844 180.58349609 C-161.13058594 179.75076172 -162.02777344 178.91802734 -162.95214844 178.06005859 C-185.36064476 156.59574048 -197.47549842 126.66746215 -198.70776367 95.74755859 C-199.09973323 62.65786179 -185.84474036 32.0917921 -163.15917969 8.54443359 C-120.14785178 -35.23620262 -47.24043328 -41.18362159 0 0 Z M-163.23339844 23.58349609 C-165.87047131 26.77671791 -168.10066476 30.03796167 -170.23339844 33.58349609 C-170.88566406 34.60314453 -171.53792969 35.62279297 -172.20996094 36.67333984 C-187.47634215 61.63130014 -190.98410636 92.57312733 -184.26855469 120.88037109 C-180.57769837 135.03269533 -174.17566296 148.00768553 -165.23339844 159.58349609 C-164.5953125 160.43556641 -163.95722656 161.28763672 -163.29980469 162.16552734 C-159.0657114 167.67067397 -154.6008654 172.20248252 -149.23339844 176.58349609 C-148.05197266 177.62957031 -148.05197266 177.62957031 -146.84667969 178.69677734 C-125.61609761 197.07122731 -98.39722509 205.19837765 -70.52783203 203.75195312 C-47.19294907 202.0387089 -24.83635984 194.36231642 -7.23339844 178.58349609 C-5.97462891 177.50261719 -5.97462891 177.50261719 -4.69042969 176.39990234 C15.78425246 158.52714652 30.4453859 134.07775088 32.76660156 106.58349609 C34.31560689 70.97428102 26.33361283 43.14823866 2.74316406 16.27880859 C-16.54505797 -3.98603228 -43.37130807 -16.07228025 -71.23339844 -17.41650391 C-72.52503906 -17.49578125 -72.52503906 -17.49578125 -73.84277344 -17.57666016 C-109.86737429 -18.74695086 -139.64356962 -2.48869492 -163.23339844 23.58349609 Z " fill="#060606" transform="translate(202.2333984375,37.41650390625)"/>
<path d="M0 0 C4.86468118 2.3422539 7.483962 5.24748378 10 10 C11.53882272 15.64234998 10.82554043 18.91402723 8 24 C4.73399426 27.97216914 2.07324992 30.00524511 -3 31 C-8.68277204 31.09110657 -12.57470488 29.70489824 -17 26 C-20.09057893 22.16341926 -21.29823944 17.90739445 -21 13 C-19.35978535 7.65231791 -16.70424933 4.09490087 -12 1 C-8.285392 -0.857304 -4.05406882 -0.44282906 0 0 Z M-16 14 C-15 17 -15 17 -15 17 Z M5 14 C6 17 6 17 6 17 Z M-15 18 C-14 20 -14 20 -14 20 Z M4 18 C5 20 5 20 5 20 Z M-7 25 C-7 25.33 -7 25.66 -7 26 C-5.35 26 -3.7 26 -2 26 C-2 25.67 -2 25.34 -2 25 C-3.65 25 -5.3 25 -7 25 Z " fill="#000000" transform="translate(110,140)"/>
<path d="M0 0 C5.82168816 0.86372025 9.29244859 5.82093838 13.25 9.8125 C14.09046875 10.63298828 14.9309375 11.45347656 15.796875 12.29882812 C16.5909375 13.09353516 17.385 13.88824219 18.203125 14.70703125 C18.93176758 15.4338208 19.66041016 16.16061035 20.41113281 16.90942383 C22 19 22 19 22 23 C15.39934754 22.23749332 12.09962922 17.72183777 7.625 13.1875 C6.78066406 12.36701172 5.93632813 11.54652344 5.06640625 10.70117188 C3.87724609 9.50911133 3.87724609 9.50911133 2.6640625 8.29296875 C1.93654785 7.5661792 1.2090332 6.83938965 0.45947266 6.09057617 C-1 4 -1 4 -0.72900391 1.73168945 C-0.48843262 1.16023193 -0.24786133 0.58877441 0 0 Z " fill="#000000" transform="translate(72,166)"/>
</svg>
