<?xml version="1.0" encoding="UTF-8"?>
<svg version="1.1" xmlns="http://www.w3.org/2000/svg" width="250" height="265">
<path d="M0 0 C21.84103996 17.71638882 35.24280597 40.69610161 38.50390625 68.83984375 C38.60677679 70.3803301 38.69061929 71.92222412 38.75390625 73.46484375 C38.80546875 74.24988281 38.85703125 75.03492188 38.91015625 75.84375 C39.91109642 103.16107536 28.96283238 127.71752908 10.75390625 147.46484375 C10.17253906 148.12742188 9.59117187 148.79 8.9921875 149.47265625 C-5.24771282 164.89622587 -27.48999586 175.30144382 -48.24609375 177.46484375 C-51.58844024 177.59547454 -54.90410841 177.59533342 -58.24609375 177.46484375 C-58.37109375 170.83984375 -58.37109375 170.83984375 -57.24609375 167.46484375 C-53.94609375 167.13484375 -50.64609375 166.80484375 -47.24609375 166.46484375 C-47.2210376 165.47266846 -47.19598145 164.48049316 -47.17016602 163.45825195 C-47.07471509 159.71385675 -46.97485331 155.96958908 -46.8737793 152.2253418 C-46.83094285 150.61664856 -46.78924176 149.00792462 -46.7487793 147.39916992 C-46.50454151 137.72313221 -46.11829953 128.1083361 -45.24609375 118.46484375 C-40.6591941 116.56834316 -36.08120965 114.71678803 -31.359375 113.1796875 C-12.73887949 107.07092709 5.06755795 97.9645465 15.00390625 80.234375 C18.4753576 72.84548723 19.51622347 64.03452011 17.0234375 56.15625 C13.97400336 50.36854847 9.09647234 47.20832438 3.0234375 45.26171875 C-5.14293163 42.90774068 -13.12846066 42.79412111 -21.55859375 42.71484375 C-23.08922518 42.68660392 -24.61982624 42.65666572 -26.15039062 42.625 C-29.84881595 42.55210045 -33.54711533 42.5019519 -37.24609375 42.46484375 C-37.05273438 41.93117187 -36.859375 41.3975 -36.66015625 40.84765625 C-36.39976562 40.10257813 -36.139375 39.3575 -35.87109375 38.58984375 C-35.61585938 37.87054688 -35.360625 37.15125 -35.09765625 36.41015625 C-33.87040879 32.16545632 -33.11264336 27.79759179 -32.24609375 23.46484375 C-52.70609375 23.79484375 -73.16609375 24.12484375 -94.24609375 24.46484375 C-92.75032037 34.25374695 -92.75032037 34.25374695 -88.26953125 41.80859375 C-87.24609375 43.46484375 -87.24609375 43.46484375 -87.24609375 46.46484375 C-101.75426081 51.30089944 -123.16362176 48.38312277 -136.76953125 41.74609375 C-146.13312033 36.49714595 -146.13312033 36.49714595 -148.24609375 33.46484375 C-147.83161489 22.2739144 -134.40327342 10.97092956 -126.87109375 3.78125 C-92.23689924 -28.34464331 -36.58333032 -28.92111329 0 0 Z M-88.24609375 1.46484375 C-91.04462884 5.19855017 -93.45669985 8.79842663 -94.24609375 13.46484375 C-93.19852789 14.73601138 -93.19852789 14.73601138 -90.8480072 14.58509827 C-89.25249779 14.58176735 -89.25249779 14.58176735 -87.62475586 14.57836914 C-86.42358627 14.57829361 -85.22241669 14.57821808 -83.98484802 14.57814026 C-82.02394981 14.57039833 -82.02394981 14.57039833 -80.0234375 14.5625 C-78.67965243 14.56063573 -77.33586668 14.55921187 -75.99208069 14.55821228 C-72.44927098 14.55438777 -68.90650205 14.54455807 -65.3637085 14.5335083 C-61.75094148 14.52329274 -58.13816791 14.51871435 -54.52539062 14.51367188 C-47.43227495 14.50293573 -40.33918701 14.48586011 -33.24609375 14.46484375 C-34.42043822 6.66169526 -37.84151814 1.10838208 -43.99609375 -3.91015625 C-58.1621805 -13.58717945 -76.87994867 -11.29307419 -88.24609375 1.46484375 Z " fill="#010101" transform="translate(186.24609375,53.53515625)"/>
<path d="M0 0 C1.4540625 0.68835938 1.4540625 0.68835938 2.9375 1.390625 C4.29133807 2.01113411 5.64552455 2.63088342 7 3.25 C7.6290625 3.55035156 8.258125 3.85070312 8.90625 4.16015625 C22.05129996 10.10070767 35.26087446 11.61372526 49.5 11.75 C51.01695935 11.77826632 52.53388843 11.80820784 54.05078125 11.83984375 C57.70037867 11.91242039 61.34985005 11.96275357 65 12 C65.99 14.475 65.99 14.475 67 17 C88.78 17.495 88.78 17.495 111 18 C111.66 14.7 112.32 11.4 113 8 C119.21957055 6.44355712 124.90788524 5.64205852 131.3125 5.6875 C132.13919189 5.69241455 132.96588379 5.6973291 133.81762695 5.70239258 C143.54928049 5.88751329 153.47306591 7.30939192 161 14 C165.05100446 18.53712499 166.88993211 23.29642928 167.1875 29.359375 C166.51858916 38.77986927 161.87594887 45.82273626 155 52 C143.02340517 61.89294748 122.98700099 74.54033693 107 74 C106.97514636 69.97982745 106.95706762 65.95968512 106.94506836 61.93945312 C106.94006214 60.5738853 106.93325518 59.20832276 106.92456055 57.84277344 C106.91233169 55.87176882 106.90727134 53.9007239 106.90234375 51.9296875 C106.89710693 50.74616699 106.89187012 49.56264648 106.88647461 48.34326172 C107 45 107 45 107.56860352 41.62939453 C107.71096436 40.76169434 107.8533252 39.89399414 108 39 C106.83251001 37.60476145 106.83251001 37.60476145 103.58178711 37.88647461 C102.06363012 37.88663372 100.54546771 37.89232774 99.02734375 37.90234375 C97.83087975 37.90446617 97.83087975 37.90446617 96.61024475 37.90663147 C94.05262565 37.91224684 91.49509282 37.92480188 88.9375 37.9375 C87.20768355 37.94251302 85.47786574 37.94707627 83.74804688 37.95117188 C79.49866447 37.96222125 75.24934688 37.97949614 71 38 C70.01718461 41.5516556 70.08224153 44.2489522 70.4375 47.9375 C71.06955508 56.10559643 71.08648039 64.24800894 71.0625 72.4375 C71.0606369 73.10490204 71.0587738 73.77230408 71.05685425 74.45993042 C71.04462513 78.30666808 71.02518217 82.15332676 71 86 C70.11884521 86.32830811 69.23769043 86.65661621 68.32983398 86.99487305 C67.16782471 87.43355713 66.00581543 87.87224121 64.80859375 88.32421875 C63.65931396 88.75565186 62.51003418 89.18708496 61.32592773 89.6315918 C52.58014531 93.22992627 45.96395196 98.46768234 42.00390625 107.1953125 C40.10831016 112.40139936 39.43702719 117.49345743 39 123 C18.37901052 113.35275346 4.67005349 92.52314079 -3.3203125 71.87792969 C-11.32989227 49.74801318 -10.42746616 22.48782828 -1 1 C-0.67 0.67 -0.34 0.34 0 0 Z M67 23 C67.4452998 27.63019987 67.4452998 27.63019987 69 29 C71.84924301 29.12592074 74.67291608 29.18867742 77.5234375 29.203125 C78.38055328 29.20882507 79.23766907 29.21452515 80.12075806 29.22039795 C81.93824015 29.22986282 83.75573952 29.23638781 85.57324219 29.24023438 C88.35642426 29.24993525 91.13886661 29.28094214 93.921875 29.3125 C95.68489143 29.31903021 97.44791316 29.32428061 99.2109375 29.328125 C100.04539398 29.3404718 100.87985046 29.3528186 101.73959351 29.36553955 C106.02005316 29.47053288 106.02005316 29.47053288 109.74404907 27.66522217 C111.30107812 25.94843685 111.30107812 25.94843685 111 23 C96.48 23 81.96 23 67 23 Z " fill="#000000" transform="translate(34,93)"/>
<path d="M0 0 C25.10526356 23.35607679 38.57126163 53.27328997 39.8125 87.5625 C40.40469228 121.0657785 27.28452162 151.40850634 4.40283203 175.37280273 C-18.20685109 198.42052308 -47.83661207 211.09252594 -80.17285156 212.03710938 C-114.48374522 212.32609001 -145.17319258 200.14809502 -169.68701172 176.0546875 C-193.09928217 152.77193498 -205.33423772 122.54784362 -205.5625 89.5625 C-205.33415865 60.23218186 -195.55973977 31.45293656 -175.30078125 9.83203125 C-173.54001106 7.94107473 -171.92182168 6.01744937 -170.3125 4 C-152.52756834 -16.88009932 -124.06250059 -28.80256403 -97.4375 -32.125 C-60.44893454 -35.03557564 -27.5967538 -24.94530951 0 0 Z M-116.1875 -17.4375 C-117.40953125 -17.07527344 -118.6315625 -16.71304687 -119.890625 -16.33984375 C-132.23151377 -12.33041403 -143.34368476 -5.88018825 -153.1875 2.5625 C-153.99703125 3.25085938 -154.8065625 3.93921875 -155.640625 4.6484375 C-176.4217732 22.81600571 -190.67467679 46.92166275 -194.1875 74.5625 C-194.47761792 79.29543809 -194.5211551 84.00907929 -194.5 88.75 C-194.49581055 90.0299585 -194.49162109 91.30991699 -194.48730469 92.62866211 C-194.37592422 101.96625554 -193.66927972 110.5485901 -191.1875 119.5625 C-190.92066406 120.57183594 -190.65382812 121.58117187 -190.37890625 122.62109375 C-184.765978 141.40569362 -173.70856773 156.65894096 -160.1875 170.5625 C-159.43082031 171.34496094 -158.67414063 172.12742188 -157.89453125 172.93359375 C-135.21302979 194.83432063 -105.76850829 201.35145918 -75.2734375 200.8984375 C-47.19447245 200.25296276 -24.05483795 187.70475262 -4.1875 168.5625 C-3.54167969 167.97984375 -2.89585937 167.3971875 -2.23046875 166.796875 C18.16869026 147.87868538 27.4383067 119.25633724 28.94140625 92.24609375 C29.72258438 61.46767557 17.76940895 33.66685153 -3.078125 11.44921875 C-8.94774023 5.33483858 -14.93444931 0.0177946 -22.1875 -4.4375 C-23.26902344 -5.10523437 -24.35054687 -5.77296875 -25.46484375 -6.4609375 C-52.13789896 -22.50726264 -86.34685337 -26.8458075 -116.1875 -17.4375 Z " fill="#050505" transform="translate(208.1875,42.4375)"/>
<path d="M0 0 C1.20161511 3.60484534 1.23017136 6.97289857 1.31640625 10.73046875 C1.33718735 11.48088943 1.35796844 12.23131012 1.37937927 13.00447083 C1.44469926 15.39872184 1.50367792 17.79308139 1.5625 20.1875 C1.60570193 21.81186013 1.64931676 23.43620933 1.69335938 25.06054688 C1.80036263 29.04025371 1.90167937 33.02006958 2 37 C3.39025391 37.09087891 3.39025391 37.09087891 4.80859375 37.18359375 C6.00613281 37.26738281 7.20367187 37.35117188 8.4375 37.4375 C9.63246094 37.51871094 10.82742187 37.59992188 12.05859375 37.68359375 C15 38 15 38 16 39 C16.26293056 43.03160191 16.29404844 44.55892734 14 48 C2.23886119 47.60333427 -9.59228335 45.81249672 -20 40 C-23.99451745 35.5922566 -24.10738706 29.70685522 -24 24 C-22.96714675 16.52829561 -19.85724645 10.77559467 -14 6 C-3.97435897 0 -3.97435897 0 0 0 Z " fill="#000000" transform="translate(105,183)"/>
<path d="M0 0 C0.66 0.33 1.32 0.66 2 1 C0.54782324 2.50596108 -0.91192861 4.00462104 -2.375 5.5 C-3.18710937 6.3353125 -3.99921875 7.170625 -4.8359375 8.03125 C-7 10 -7 10 -9 10 C-9.33644531 10.81210937 -9.33644531 10.81210937 -9.6796875 11.640625 C-11.41148866 14.73532294 -13.71619268 17.17925605 -16.125 19.75 C-16.59292969 20.25660156 -17.06085937 20.76320313 -17.54296875 21.28515625 C-18.69126541 22.52719141 -19.84508672 23.76411494 -21 25 C-21 20.62258001 -18.32057489 18.45074197 -15.5625 15.3125 C-15.02206055 14.68907715 -14.48162109 14.0656543 -13.92480469 13.42333984 C-9.62561248 8.53950822 -5.05263407 4.10845498 0 0 Z " fill="#202020" transform="translate(48,37)"/>
</svg>
