<?xml version="1.0" encoding="UTF-8"?>
<svg version="1.1" xmlns="http://www.w3.org/2000/svg" width="250" height="262">
<path d="M0 0 C28.00131995 -0.74422113 52.69579164 10.4507581 73.0234375 29.35546875 C92.70231327 49.51778511 101.27607819 74.06555171 101.078125 101.92333984 C100.48529308 129.14832224 89.06891948 151.33670391 70.29296875 170.625 C53.81201016 186.21290172 31.50071745 196.24760375 8.7265625 197.125 C7.90542969 197.16496094 7.08429688 197.20492187 6.23828125 197.24609375 C-21.17362777 197.93646775 -45.73635808 187.98766194 -65.63891602 169.21020508 C-72.83235179 162.21147304 -78.34407629 154.84374167 -83.2734375 146.125 C-83.76199219 145.28710938 -84.25054687 144.44921875 -84.75390625 143.5859375 C-97.17812001 120.72538419 -98.13752611 93.45907465 -91.08984375 68.83984375 C-85.96079484 52.298661 -76.49594196 39.18041623 -64.2734375 27.125 C-63.45101562 26.29226562 -62.62859375 25.45953125 -61.78125 24.6015625 C-45.2670403 8.7370922 -22.49065994 1.23659986 0 0 Z M-36.4251709 22.07618713 C-38.68252008 27.52834808 -38.09289971 33.82927342 -38.04296875 39.63671875 C-38.05168457 41.17179631 -38.06317448 42.70686042 -38.07731628 44.24189758 C-38.10767878 48.2740162 -38.10327698 52.30533966 -38.09069824 56.33752441 C-38.08125868 61.24488565 -38.10969354 66.15214232 -38.13576031 71.05942249 C-38.15577508 74.87523821 -38.16901862 78.69064519 -38.16157532 82.5065155 C-38.16189255 83.20640091 -38.16220978 83.90628632 -38.16253662 84.62738037 C-38.16328068 86.5177981 -38.15959479 88.40821611 -38.15559387 90.29862976 C-38.2734375 93.125 -38.2734375 93.125 -39.2734375 95.125 C-39.37156949 97.61582076 -39.41249298 100.07233789 -39.3984375 102.5625 C-39.40230469 103.24376953 -39.40617187 103.92503906 -39.41015625 104.62695312 C-39.4040749 107.73148046 -39.26234062 110.15829065 -38.2734375 113.125 C-38.18181725 114.98503479 -38.14831628 116.84815951 -38.14746094 118.71044922 C-38.14365417 119.85528778 -38.13984741 121.00012634 -38.13592529 122.17965698 C-38.13489807 123.41716705 -38.13387085 124.65467712 -38.1328125 125.9296875 C-38.1144887 128.54037334 -38.0949188 131.15105067 -38.07421875 133.76171875 C-38.04385297 137.8853149 -38.02111862 142.00860565 -38.02294922 146.13232422 C-38.02388818 150.10678382 -37.98511081 154.08042085 -37.9453125 158.0546875 C-37.9523822 159.28814911 -37.9594519 160.52161072 -37.96673584 161.79244995 C-37.95032043 162.94359283 -37.93390503 164.09473572 -37.91699219 165.28076172 C-37.91334656 166.29097382 -37.90970093 167.30118591 -37.90594482 168.3420105 C-37.015325 172.26067756 -35.46029708 173.72907093 -32.2734375 176.125 C-28.99247149 176.87030434 -28.99247149 176.87030434 -25.359375 176.75610352 C-24.68392639 176.76325882 -24.00847778 176.77041412 -23.31256104 176.77778625 C-21.09048832 176.79462922 -18.87044605 176.77530039 -16.6484375 176.75390625 C-15.09814284 176.75473537 -13.54784827 176.7571964 -11.99755859 176.76121521 C-8.75265965 176.76407015 -5.50845212 176.74940289 -2.26367188 176.72192383 C1.88939982 176.68784056 6.04123559 176.69386157 10.19436646 176.7125864 C13.39439134 176.72317033 16.59413012 176.71420613 19.79412842 176.69920158 C21.32508494 176.69402947 22.85607145 176.6944898 24.38702393 176.70074654 C26.52949952 176.70621604 28.67022414 176.6857727 30.8125 176.65844727 C32.6385376 176.6491494 32.6385376 176.6491494 34.50146484 176.6396637 C38.34864012 176.02572835 40.0087579 174.87315253 42.7265625 172.125 C43.80360986 168.89385791 43.89052232 166.47117803 43.94775391 163.07055664 C43.98242264 161.17422234 43.98242264 161.17422234 44.01779175 159.23957825 C44.03818022 157.83810826 44.05828191 156.43663407 44.078125 155.03515625 C44.10187298 153.565035 44.12581344 152.09491684 44.14993286 150.62480164 C44.22615269 145.81247902 44.28954598 141.00002342 44.3515625 136.1875 C44.36791496 134.96136742 44.36791496 134.96136742 44.38459778 133.71046448 C44.71510907 108.84021534 44.80595252 83.97745538 44.50206757 59.10654831 C44.47659618 56.87794639 44.4565129 54.64935295 44.43780518 52.42068481 C44.40170386 48.27485017 44.33961456 44.12983991 44.2734375 39.984375 C44.26386017 38.76272141 44.25428284 37.54106781 44.24441528 36.28239441 C44.17307432 28.23901253 44.17307432 28.23901253 40.7265625 21.125 C37.27270109 18.83027291 34.20581431 18.85536274 30.12548828 18.81860352 C29.14420456 18.80611824 29.14420456 18.80611824 28.14309692 18.79338074 C25.98596195 18.76933604 23.82912966 18.76051571 21.671875 18.75390625 C20.16738802 18.74493579 18.66290193 18.73581387 17.15841675 18.72654724 C14.00614253 18.71006982 10.85397436 18.70235941 7.70166016 18.69946289 C3.67081136 18.69407976 -0.35903495 18.65639887 -4.38960075 18.61071873 C-7.49695437 18.58091324 -10.60406755 18.5737386 -13.71155167 18.57273674 C-15.19707965 18.56854142 -16.68260879 18.55613456 -18.16799545 18.53521919 C-28.10409598 17.87231744 -28.10409598 17.87231744 -36.4251709 22.07618713 Z " fill="#010101" transform="translate(122.2734375,31.875)"/>
<path d="M0 0 C15.27979537 13.69606866 26.23653731 27.94295077 34.76660156 46.58349609 C35.17652344 47.44201172 35.58644531 48.30052734 36.00878906 49.18505859 C47.78665638 75.75373603 46.41039974 109.33809874 36.55957031 136.16162109 C24.49873146 166.9361473 0.52205792 191.1152673 -29.40087891 204.78564453 C-58.10582625 217.28334876 -92.42889676 217.45257612 -121.50537109 206.06616211 C-152.02401053 193.41256357 -175.87858867 169.755164 -189.23339844 139.58349609 C-189.64203125 138.67599609 -190.05066406 137.76849609 -190.47167969 136.83349609 C-202.24734121 107.73533634 -200.33306739 73.90460061 -188.48339844 45.23583984 C-175.77408008 16.04468708 -150.96699667 -7.6120271 -121.65527344 -19.72900391 C-115.31292788 -22.21965568 -108.90874803 -24.01967965 -102.23339844 -25.41650391 C-100.63238281 -25.75294922 -100.63238281 -25.75294922 -98.99902344 -26.09619141 C-64.0385022 -32.20173698 -26.9076862 -23.45778583 0 0 Z M-154.23339844 14.58349609 C-154.93980469 15.24349609 -155.64621094 15.90349609 -156.37402344 16.58349609 C-176.1971743 35.37877988 -186.41948725 61.84873628 -187.41699219 88.80615234 C-188.12986289 119.97998818 -177.57358031 146.76636215 -156.86230469 170.07177734 C-155.35945512 171.8102457 -155.35945512 171.8102457 -153.23339844 171.58349609 C-152.90339844 172.57349609 -152.57339844 173.56349609 -152.23339844 174.58349609 C-150.20945698 176.41778564 -148.20099215 178.10411874 -146.04589844 179.77099609 C-145.41804443 180.25785889 -144.79019043 180.74472168 -144.14331055 181.24633789 C-129.51059611 192.3555166 -113.35047612 199.54128004 -95.23339844 202.58349609 C-94.49347656 202.71498047 -93.75355469 202.84646484 -92.99121094 202.98193359 C-65.86631379 206.88707443 -36.28885744 200.48571592 -14.10839844 184.33349609 C10.04179647 165.35375515 28.34895845 140.97186285 32.56811523 109.77978516 C35.54715494 76.8161429 28.89383904 48.69509076 8.20410156 22.70849609 C-11.73615739 -0.80725757 -38.49982074 -14.86206098 -69.23339844 -17.41650391 C-101.68767655 -19.1929486 -131.31652922 -8.5149648 -154.23339844 14.58349609 Z " fill="#020202" transform="translate(202.2333984375,37.41650390625)"/>
<path d="M0 0 C5.83820713 5.30445518 11.34837088 10.95765869 16.81054688 16.64501953 C16.48054687 17.30501953 16.15054688 17.96501953 15.81054688 18.64501953 C15.36888184 18.18240723 14.9272168 17.71979492 14.47216797 17.24316406 C-8.80211783 -6.98207523 -35.33596042 -23.48570412 -69.89648438 -24.64013672 C-105.73106766 -25.31873021 -135.15370649 -15.17951084 -161.31054688 9.77392578 C-183.6960684 31.75529546 -195.01922557 61.07776924 -195.37695312 92.20751953 C-195.32990805 117.05320068 -189.41043537 141.57728445 -174.18945312 161.64501953 C-174.51945312 162.30501953 -174.84945312 162.96501953 -175.18945312 163.64501953 C-193.25694102 139.81131209 -201.41793264 108.27561866 -197.36938477 78.60253906 C-192.09274113 44.20793833 -175.04329078 14.95263423 -146.86523438 -5.84716797 C-133.35451775 -15.46580324 -118.42110417 -21.95848961 -102.18945312 -25.35498047 C-100.5884375 -25.69142578 -100.5884375 -25.69142578 -98.95507812 -26.03466797 C-64.03394636 -32.13333452 -26.90230122 -23.41239788 0 0 Z " fill="#303030" transform="translate(202.189453125,37.35498046875)"/>
<path d="M0 0 C4.6 3.2 4.6 3.2 6 6 C6.57717357 10.73093088 6.43416625 14.14717343 4.25 18.4375 C0.83261414 22.32952279 -0.68927146 22.8731553 -5.875 23.375 C-10.18785966 23.26235068 -12.70279071 21.82617939 -16 19 C-18.34765286 16.01207818 -18.42731625 12.77757813 -18.30859375 9.02734375 C-17.77569909 5.5264282 -16.34981974 3.59082689 -14 1 C-8.70358723 -2.19783413 -5.67741012 -2.41815616 0 0 Z " fill="#010101" transform="translate(151,62)"/>
<path d="M0 0 C2.70552388 2.19823815 4.44778333 3.89556667 6 7 C6.42794952 11.18896746 6.40377171 14.90744125 4.9375 18.875 C2.22640744 21.84845636 -0.15753438 22.84726031 -4 24 C-9.30847307 23.9084746 -12.24660045 22.75339955 -16 19 C-18.52481154 15.51335549 -18.43474022 12.20248882 -18 8 C-13.86335628 0.0331306 -8.57652444 -2.59470939 0 0 Z " fill="#040404" transform="translate(111,90)"/>
<path d="M0 0 C2.85765319 1.91623006 5.43365959 3.86731919 7 7 C7.57717357 11.73093088 7.43416625 15.14717343 5.25 19.4375 C2.00282049 23.13567666 0.45989425 23.86728234 -4.4375 24.3125 C-9.45557298 23.87231816 -11.71759677 22.21308414 -15.3125 18.8125 C-17.50345289 15.16091185 -17.78031617 12.10269329 -17 8 C-15.0655767 3.89902259 -13.56463482 2.32414221 -9.625 0.0625 C-5.67815805 -1.09433298 -3.87236437 -1.3182517 0 0 Z " fill="#010101" transform="translate(110,61)"/>
<path d="M0 0 C3.76115969 2.06495042 7.09650288 4.08725592 9 8 C9.65635436 11.81414811 9.85370368 15.33826404 8.05078125 18.84765625 C5.52036779 22.09648363 3.0163179 24.13936045 -1 25 C-7.09373468 24.88920482 -9.83902803 23.16097197 -14 19 C-15.48728837 14.53813488 -15.71130532 10.69922938 -13.875 6.3125 C-10.05835512 1.60530465 -6.14184659 -1.0236411 0 0 Z " fill="#050505" transform="translate(148,89)"/>
<path d="M0 0 C3.12095194 2.80085431 3.90528019 4.33696131 4.5 8.5 C3.9231981 12.53761333 2.85349783 14.14650217 0 17 C-3.22878519 18.6143926 -6.50903682 18.5818272 -10 18 C-13.60199656 15.47093858 -14.76443405 13.76212513 -16.0625 9.5625 C-15.98411886 5.09477498 -14.93800829 3.32458833 -12 0 C-7.68633211 -2.79805485 -4.60613747 -1.92620294 0 0 Z " fill="#000000" transform="translate(131,174)"/>
<path d="M0 0 C0 4.01208875 -1.99687275 5.74130154 -4.4375 8.6875 C-24.54035386 34.02083192 -31.80989054 65.57806274 -28.25 97.5 C-25.82050721 116.53210663 -19.70015089 134.57421966 -8 150 C-8.33 150.66 -8.66 151.32 -9 152 C-27.0674879 128.16629256 -35.22847951 96.63059913 -31.17993164 66.95751953 C-27.24275062 41.29390107 -17.48490918 19.32542594 0 0 Z " fill="#1C1C1C" transform="translate(36,49)"/>
<path d="M0 0 C0.33 0 0.66 0 1 0 C1 10.23 1 20.46 1 31 C0.34 31 -0.32 31 -1 31 C-1.82481886 25.97253269 -2.15430519 21.0991028 -2.125 16 C-2.12886719 15.32710937 -2.13273438 14.65421875 -2.13671875 13.9609375 C-2.11384792 2.11384792 -2.11384792 2.11384792 0 0 Z " fill="#292929" transform="translate(6,115)"/>
<path d="M0 0 C1.32 0 2.64 0 4 0 C4.33 0.99 4.66 1.98 5 3 C4.67 3.66 4.34 4.32 4 5 C2.68 5 1.36 5 0 5 C-0.33 4.01 -0.66 3.02 -1 2 C-0.67 1.34 -0.34 0.68 0 0 Z " fill="#000000" transform="translate(123,152)"/>
<path d="M0 0 C-0.99 0.33 -1.98 0.66 -3 1 C-3 2.98 -3 4.96 -3 7 C-3.66 7 -4.32 7 -5 7 C-5 5.02 -5 3.04 -5 1 C-5.99 0.67 -6.98 0.34 -8 0 C-4.71023192 -1.09658936 -3.28696233 -0.79953138 0 0 Z " fill="#5E5E5E" transform="translate(149,61)"/>
<path d="M0 0 C2.0625 0.4375 2.0625 0.4375 4 1 C3.01 1.495 3.01 1.495 2 2 C2 3.98 2 5.96 2 8 C1.34 8 0.68 8 0 8 C-0.38063221 5.6739143 -0.71269945 3.33944736 -1 1 C-0.67 0.67 -0.34 0.34 0 0 Z " fill="#606060" transform="translate(104,60)"/>
</svg>
